<?xml version="1.0" encoding="UTF-8"?>
<svg xmlns="http://www.w3.org/2000/svg" id="Layer_2" data-name="Layer 2" viewBox="0 0 1639.23 699.72">
  <defs>
    <style>
      .cls-1 {
        fill: #0071ce;
        stroke-width: 0px;
      }
    </style>
  </defs>
  <g id="Layer_1-2" data-name="Layer 1">
    <g>
      <path class="cls-1" d="M317.86,545.51c-29.37,27.28-78.68,28.32-119.59,28.32h-38.81v-169.95h44.06c32.52,0,87.07,0,115.39,26.23,10.49,9.44,22.03,28.32,22.03,56.65,0,25.18-8.39,45.11-23.08,58.75h0ZM159.46,125.89h25.18c29.37,0,60.84,0,83.92,17.83,12.59,9.44,27.28,28.32,27.28,58.75s-13.64,51.4-28.32,61.89c-23.08,16.78-59.8,19.93-81.83,19.93h-26.23V125.89h0ZM457.39,373.46c-25.18-25.18-62.94-41.96-96.51-47.21,16.78-7.34,40.91-22.03,58.75-51.4,5.66-9.11,9.97-18.32,13.27-27.47l-57.61-207.72C321.23,1.72,248.04,0,214.01,0H0v699.72h263.31c43.01,0,126.94-4.2,184.63-59.8,27.27-27.27,54.54-71.32,54.55-141.57l-29.34-105.79c-5.02-7.32-10.36-13.69-15.77-19.1h0Z"></path>
      <path class="cls-1" d="M1218.84,0c-19.53,0-36.66,13.03-41.87,31.84l-106.57,384.26L963.83,31.84c-5.22-18.82-22.35-31.84-41.88-31.84h-160.47l-115.4,416.1L539.53,31.84c-5.22-18.82-22.35-31.84-41.87-31.84h-133.36l11,39.66,57.61,207.72,40.26,145.18,29.34,105.79,55.84,201.37h142.46c19.53,0,36.66-13.03,41.87-31.84l115.57-416.73,124.4,448.58h142.46c19.53,0,36.66-13.03,41.87-31.84l76.76-276.77V0h-24.9Z"></path>
      <polygon class="cls-1" points="1639.23 136.38 1639.23 0 1352.2 0 1243.73 0 1243.73 391.11 1243.73 699.72 1639.23 699.72 1639.23 563.35 1405.29 563.35 1405.29 408.08 1627.69 408.08 1627.69 271.71 1405.29 271.71 1405.29 136.38 1639.23 136.38 1639.23 136.38"></polygon>
    </g>
  </g>
</svg>
