<?xml version="1.0" encoding="UTF-8"?>
<svg xmlns="http://www.w3.org/2000/svg" xmlns:xlink="http://www.w3.org/1999/xlink" width="337.19pt" height="63.71pt" viewBox="0 0 337.19 63.71" version="1.1">
<defs>
<clipPath id="clip1">
  <path d="M 301 0 L 337.191406 0 L 337.191406 39 L 301 39 Z M 301 0 "/>
</clipPath>
<clipPath id="clip2">
  <path d="M 26 55 L 33 55 L 33 63.710938 L 26 63.710938 Z M 26 55 "/>
</clipPath>
<clipPath id="clip3">
  <path d="M 39 55 L 45 55 L 45 63.710938 L 39 63.710938 Z M 39 55 "/>
</clipPath>
<clipPath id="clip4">
  <path d="M 47 55 L 52 55 L 52 63.710938 L 47 63.710938 Z M 47 55 "/>
</clipPath>
<clipPath id="clip5">
  <path d="M 53 55 L 60 55 L 60 63.710938 L 53 63.710938 Z M 53 55 "/>
</clipPath>
<clipPath id="clip6">
  <path d="M 62 55 L 67 55 L 67 63.710938 L 62 63.710938 Z M 62 55 "/>
</clipPath>
<clipPath id="clip7">
  <path d="M 73 55 L 78 55 L 78 63.710938 L 73 63.710938 Z M 73 55 "/>
</clipPath>
<clipPath id="clip8">
  <path d="M 80 55 L 86 55 L 86 63.710938 L 80 63.710938 Z M 80 55 "/>
</clipPath>
<clipPath id="clip9">
  <path d="M 87 55 L 93 55 L 93 63.710938 L 87 63.710938 Z M 87 55 "/>
</clipPath>
<clipPath id="clip10">
  <path d="M 93 55 L 100 55 L 100 63.710938 L 93 63.710938 Z M 93 55 "/>
</clipPath>
<clipPath id="clip11">
  <path d="M 101 55 L 106 55 L 106 63.710938 L 101 63.710938 Z M 101 55 "/>
</clipPath>
<clipPath id="clip12">
  <path d="M 108 55 L 113 55 L 113 63.710938 L 108 63.710938 Z M 108 55 "/>
</clipPath>
<clipPath id="clip13">
  <path d="M 120 55 L 122 55 L 122 63.710938 L 120 63.710938 Z M 120 55 "/>
</clipPath>
<clipPath id="clip14">
  <path d="M 124 55 L 130 55 L 130 63.710938 L 124 63.710938 Z M 124 55 "/>
</clipPath>
<clipPath id="clip15">
  <path d="M 132 55 L 138 55 L 138 63.710938 L 132 63.710938 Z M 132 55 "/>
</clipPath>
<clipPath id="clip16">
  <path d="M 139 55 L 144 55 L 144 63.710938 L 139 63.710938 Z M 139 55 "/>
</clipPath>
<clipPath id="clip17">
  <path d="M 146 55 L 152 55 L 152 63.710938 L 146 63.710938 Z M 146 55 "/>
</clipPath>
<clipPath id="clip18">
  <path d="M 153 55 L 159 55 L 159 63.710938 L 153 63.710938 Z M 153 55 "/>
</clipPath>
<clipPath id="clip19">
  <path d="M 161 55 L 168 55 L 168 63.710938 L 161 63.710938 Z M 161 55 "/>
</clipPath>
<clipPath id="clip20">
  <path d="M 171 55 L 176 55 L 176 63.710938 L 171 63.710938 Z M 171 55 "/>
</clipPath>
<clipPath id="clip21">
  <path d="M 178 55 L 184 55 L 184 63.710938 L 178 63.710938 Z M 178 55 "/>
</clipPath>
<clipPath id="clip22">
  <path d="M 185 55 L 191 55 L 191 63.710938 L 185 63.710938 Z M 185 55 "/>
</clipPath>
<clipPath id="clip23">
  <path d="M 198 55 L 205 55 L 205 63.710938 L 198 63.710938 Z M 198 55 "/>
</clipPath>
<clipPath id="clip24">
  <path d="M 207 55 L 213 55 L 213 63.710938 L 207 63.710938 Z M 207 55 "/>
</clipPath>
<clipPath id="clip25">
  <path d="M 215 55 L 221 55 L 221 63.710938 L 215 63.710938 Z M 215 55 "/>
</clipPath>
<clipPath id="clip26">
  <path d="M 222 55 L 229 55 L 229 63.710938 L 222 63.710938 Z M 222 55 "/>
</clipPath>
<clipPath id="clip27">
  <path d="M 230 55 L 236 55 L 236 63.710938 L 230 63.710938 Z M 230 55 "/>
</clipPath>
<clipPath id="clip28">
  <path d="M 238 55 L 243 55 L 243 63.710938 L 238 63.710938 Z M 238 55 "/>
</clipPath>
<clipPath id="clip29">
  <path d="M 245 55 L 253 55 L 253 63.710938 L 245 63.710938 Z M 245 55 "/>
</clipPath>
<clipPath id="clip30">
  <path d="M 255 55 L 260 55 L 260 63.710938 L 255 63.710938 Z M 255 55 "/>
</clipPath>
<clipPath id="clip31">
  <path d="M 262 55 L 268 55 L 268 63.710938 L 262 63.710938 Z M 262 55 "/>
</clipPath>
<clipPath id="clip32">
  <path d="M 270 55 L 276 55 L 276 63.710938 L 270 63.710938 Z M 270 55 "/>
</clipPath>
<clipPath id="clip33">
  <path d="M 282 55 L 287 55 L 287 63.710938 L 282 63.710938 Z M 282 55 "/>
</clipPath>
<clipPath id="clip34">
  <path d="M 289 55 L 291 55 L 291 63.710938 L 289 63.710938 Z M 289 55 "/>
</clipPath>
<clipPath id="clip35">
  <path d="M 293 55 L 299 55 L 299 63.710938 L 293 63.710938 Z M 293 55 "/>
</clipPath>
<clipPath id="clip36">
  <path d="M 301 55 L 308 55 L 308 63.710938 L 301 63.710938 Z M 301 55 "/>
</clipPath>
</defs>
<g id="surface1">
<path style=" stroke:none;fill-rule:nonzero;fill:rgb(9.799194%,19.198608%,36.099243%);fill-opacity:1;" d="M 21.371094 0.105469 L 21.371094 1.253906 L 26.339844 1.253906 L 26.339844 18.179688 L 11.109375 18.179688 L 11.109375 1.253906 L 15.910156 1.253906 L 15.910156 0.105469 L 0 0.105469 L 0 1.253906 L 4.722656 1.253906 L 4.722656 37.503906 L 0.0234375 37.503906 L 0.0234375 38.648438 L 16.074219 38.648438 L 16.074219 37.503906 L 11.109375 37.503906 L 11.109375 19.652344 L 26.339844 19.652344 L 26.339844 37.503906 L 21.480469 37.503906 L 21.480469 38.648438 L 37.367188 38.648438 L 37.367188 37.503906 L 32.617188 37.503906 L 32.617188 1.253906 L 37.203125 1.253906 L 37.203125 0.105469 L 21.371094 0.105469 "/>
<path style=" stroke:none;fill-rule:nonzero;fill:rgb(9.799194%,19.198608%,36.099243%);fill-opacity:1;" d="M 88.03125 26.636719 L 86.992188 38.648438 L 58.332031 38.648438 L 58.332031 37.503906 L 63.191406 37.503906 L 63.191406 1.253906 L 58.441406 1.253906 L 58.441406 0.105469 L 86.011719 0.105469 L 86.449219 10.695313 L 85.683594 10.695313 C 85.519531 10.257813 85.027344 8.183594 84.863281 7.695313 C 84.589844 6.765625 84.265625 6.003906 83.664063 5.019531 C 81.476563 1.308594 78.640625 1.253906 73.457031 1.253906 L 69.140625 1.253906 L 69.140625 18.558594 L 70.890625 18.558594 C 73.457031 18.503906 75.746094 18.503906 76.839844 16.429688 C 77.386719 15.449219 77.496094 14.136719 77.660156 11.460938 L 78.585938 11.460938 L 78.585938 27.347656 L 77.714844 27.347656 C 77.496094 20.851563 76.183594 19.816406 70.832031 19.761719 L 69.140625 19.761719 L 69.140625 37.503906 L 75.363281 37.503906 C 80.550781 37.503906 82.460938 37.503906 84.484375 34.117188 C 85.902344 31.769531 86.609375 29.257813 87.269531 26.636719 L 88.03125 26.636719 "/>
<path style=" stroke:none;fill-rule:nonzero;fill:rgb(9.799194%,19.198608%,36.099243%);fill-opacity:1;" d="M 124.535156 1.253906 L 119.730469 1.253906 L 119.730469 37.503906 L 124.535156 37.503906 L 124.535156 38.648438 L 108.703125 38.648438 L 108.703125 37.503906 L 113.398438 37.503906 L 113.398438 1.253906 L 108.652344 1.253906 L 108.652344 0.105469 L 124.535156 0.105469 L 124.535156 1.253906 "/>
<path style=" stroke:none;fill-rule:nonzero;fill:rgb(9.799194%,19.198608%,36.099243%);fill-opacity:1;" d="M 166.847656 37.503906 L 166.847656 38.648438 L 149.757813 38.648438 L 149.757813 37.503906 L 155.273438 37.503906 L 155.273438 1.253906 L 153.746094 1.253906 C 150.523438 1.253906 149.15625 1.253906 147.46875 2.671875 C 145.011719 4.636719 143.535156 9.605469 143.097656 12.226563 L 142.113281 12.226563 L 142.605469 0.105469 L 173.890625 0.105469 L 174.761719 12.226563 L 173.890625 12.226563 C 173.234375 9.660156 171.269531 4.417969 169.738281 3.164063 C 167.609375 1.140625 165.757813 1.253906 162.972656 1.253906 L 161.550781 1.253906 L 161.550781 37.503906 L 166.847656 37.503906 "/>
<path style=" stroke:none;fill-rule:nonzero;fill:rgb(9.799194%,19.198608%,36.099243%);fill-opacity:1;" d="M 232.910156 1.253906 L 228.21875 1.253906 L 228.21875 37.503906 L 233.347656 37.503906 L 233.347656 38.648438 L 217.40625 38.648438 L 217.40625 37.503906 L 222.378906 37.503906 L 222.378906 2.34375 L 211.296875 38.648438 L 209.816406 38.648438 L 198.359375 1.910156 L 198.359375 37.503906 L 203.324219 37.503906 L 203.324219 38.648438 L 192.511719 38.648438 L 192.511719 37.503906 L 197.042969 37.503906 L 197.042969 1.253906 L 192.296875 1.253906 L 192.296875 0.105469 L 204.308594 0.105469 L 212.988281 28.550781 L 221.503906 0.105469 L 232.910156 0.105469 L 232.910156 1.253906 "/>
<path style=" stroke:none;fill-rule:nonzero;fill:rgb(9.799194%,19.198608%,36.099243%);fill-opacity:1;" d="M 258.957031 25.164063 L 269.765625 25.164063 L 264.359375 9.222656 Z M 270.144531 26.363281 L 258.519531 26.363281 L 254.804688 37.503906 L 259.828125 37.503906 L 259.828125 38.648438 L 249.5625 38.648438 L 249.5625 37.503906 L 253.273438 37.503906 L 266.269531 -0.00390625 L 268.015625 -0.00390625 L 280.519531 37.503906 L 284.558594 37.503906 L 284.613281 38.648438 L 268.832031 38.648438 L 268.832031 37.503906 L 273.910156 37.503906 L 270.144531 26.363281 "/>
<g clip-path="url(#clip1)" clip-rule="nonzero">
<path style=" stroke:none;fill-rule:nonzero;fill:rgb(9.799194%,19.198608%,36.099243%);fill-opacity:1;" d="M 332.871094 1.253906 L 332.871094 38.648438 L 331.835938 38.648438 L 311.582031 7.640625 C 310.433594 5.894531 309.070313 3.871094 308.253906 2.453125 L 308.253906 37.503906 L 313.273438 37.503906 L 313.273438 38.648438 L 301.8125 38.648438 L 301.8125 37.503906 L 306.832031 37.503906 L 306.832031 1.253906 L 301.972656 1.253906 L 301.972656 0.105469 L 314.089844 0.105469 L 325.394531 17.519531 C 326.433594 19.050781 327.472656 20.632813 328.453125 22.214844 C 328.886719 22.921875 331.015625 26.476563 331.511719 27.238281 L 331.511719 1.253906 L 326.921875 1.253906 L 326.921875 0.105469 L 337.1875 0.105469 L 337.1875 1.253906 L 332.871094 1.253906 "/>
</g>
<g clip-path="url(#clip2)" clip-rule="nonzero">
<path style=" stroke:none;fill-rule:nonzero;fill:rgb(9.799194%,19.198608%,36.099243%);fill-opacity:1;" d="M 28.78125 60.609375 L 30.894531 60.609375 L 29.894531 56.8125 L 29.871094 56.8125 Z M 29.253906 55.699219 L 30.550781 55.699219 L 32.664063 63.554688 L 31.652344 63.554688 L 31.09375 61.398438 L 28.582031 61.398438 L 28 63.554688 L 26.988281 63.554688 L 29.253906 55.699219 "/>
</g>
<g clip-path="url(#clip3)" clip-rule="nonzero">
<path style=" stroke:none;fill-rule:nonzero;fill:rgb(9.799194%,19.198608%,36.099243%);fill-opacity:1;" d="M 40.804688 59.265625 L 41.761719 59.265625 C 42.332031 59.265625 43.378906 59.277344 43.378906 57.746094 C 43.378906 56.964844 42.871094 56.492188 41.960938 56.492188 L 40.804688 56.492188 Z M 39.835938 55.699219 L 42.378906 55.699219 C 43.621094 55.699219 44.390625 56.425781 44.390625 57.671875 C 44.390625 58.507813 44.09375 59.441406 43.179688 59.648438 L 43.179688 59.671875 C 43.875 59.75 44.246094 60.3125 44.292969 60.980469 L 44.359375 62.324219 C 44.390625 63.191406 44.542969 63.414063 44.777344 63.554688 L 43.609375 63.554688 C 43.433594 63.378906 43.378906 62.808594 43.34375 62.421875 L 43.28125 61.203125 C 43.191406 60.125 42.609375 60.058594 42.113281 60.058594 L 40.804688 60.058594 L 40.804688 63.554688 L 39.835938 63.554688 L 39.835938 55.699219 "/>
</g>
<g clip-path="url(#clip4)" clip-rule="nonzero">
<path style=" stroke:none;fill-rule:nonzero;fill:rgb(9.799194%,19.198608%,36.099243%);fill-opacity:1;" d="M 47.535156 55.699219 L 51.59375 55.699219 L 51.59375 56.558594 L 48.503906 56.558594 L 48.503906 59.023438 L 51.417969 59.023438 L 51.417969 59.882813 L 48.503906 59.882813 L 48.503906 62.699219 L 51.726563 62.699219 L 51.726563 63.554688 L 47.535156 63.554688 L 47.535156 55.699219 "/>
</g>
<g clip-path="url(#clip5)" clip-rule="nonzero">
<path style=" stroke:none;fill-rule:nonzero;fill:rgb(9.799194%,19.198608%,36.099243%);fill-opacity:1;" d="M 55.6875 60.609375 L 57.800781 60.609375 L 56.796875 56.8125 L 56.777344 56.8125 Z M 56.160156 55.699219 L 57.457031 55.699219 L 59.570313 63.554688 L 58.558594 63.554688 L 57.996094 61.398438 L 55.488281 61.398438 L 54.90625 63.554688 L 53.894531 63.554688 L 56.160156 55.699219 "/>
</g>
<g clip-path="url(#clip6)" clip-rule="nonzero">
<path style=" stroke:none;fill-rule:nonzero;fill:rgb(9.799194%,19.198608%,36.099243%);fill-opacity:1;" d="M 62.109375 55.699219 L 63.078125 55.699219 L 63.078125 62.699219 L 66.269531 62.699219 L 66.269531 63.554688 L 62.109375 63.554688 L 62.109375 55.699219 "/>
</g>
<g clip-path="url(#clip7)" clip-rule="nonzero">
<path style=" stroke:none;fill-rule:nonzero;fill:rgb(9.799194%,19.198608%,36.099243%);fill-opacity:1;" d="M 73.617188 55.699219 L 77.675781 55.699219 L 77.675781 56.558594 L 74.585938 56.558594 L 74.585938 59.023438 L 77.5 59.023438 L 77.5 59.882813 L 74.585938 59.882813 L 74.585938 62.699219 L 77.808594 62.699219 L 77.808594 63.554688 L 73.617188 63.554688 L 73.617188 55.699219 "/>
</g>
<g clip-path="url(#clip8)" clip-rule="nonzero">
<path style=" stroke:none;fill-rule:nonzero;fill:rgb(9.799194%,19.198608%,36.099243%);fill-opacity:1;" d="M 84.035156 57.738281 C 84.035156 56.910156 83.738281 56.339844 82.8125 56.339844 C 81.988281 56.339844 81.515625 56.777344 81.515625 57.617188 C 81.515625 59.828125 85.222656 58.507813 85.222656 61.378906 C 85.222656 63.191406 83.890625 63.710938 82.78125 63.710938 C 80.941406 63.710938 80.402344 62.765625 80.402344 61.089844 L 81.371094 61.089844 C 81.371094 61.972656 81.4375 62.917969 82.84375 62.917969 C 83.617188 62.917969 84.210938 62.367188 84.210938 61.53125 C 84.210938 59.308594 80.503906 60.597656 80.503906 57.714844 C 80.503906 56.988281 80.808594 55.546875 82.800781 55.546875 C 84.308594 55.546875 84.96875 56.285156 85.003906 57.738281 L 84.035156 57.738281 "/>
</g>
<g clip-path="url(#clip9)" clip-rule="nonzero">
<path style=" stroke:none;fill-rule:nonzero;fill:rgb(9.799194%,19.198608%,36.099243%);fill-opacity:1;" d="M 90.578125 63.554688 L 89.609375 63.554688 L 89.609375 56.558594 L 87.640625 56.558594 L 87.640625 55.699219 L 92.558594 55.699219 L 92.558594 56.558594 L 90.578125 56.558594 L 90.578125 63.554688 "/>
</g>
<g clip-path="url(#clip10)" clip-rule="nonzero">
<path style=" stroke:none;fill-rule:nonzero;fill:rgb(9.799194%,19.198608%,36.099243%);fill-opacity:1;" d="M 95.738281 60.609375 L 97.851563 60.609375 L 96.847656 56.8125 L 96.828125 56.8125 Z M 96.210938 55.699219 L 97.507813 55.699219 L 99.621094 63.554688 L 98.609375 63.554688 L 98.046875 61.398438 L 95.539063 61.398438 L 94.957031 63.554688 L 93.945313 63.554688 L 96.210938 55.699219 "/>
</g>
<g clip-path="url(#clip11)" clip-rule="nonzero">
<path style=" stroke:none;fill-rule:nonzero;fill:rgb(9.799194%,19.198608%,36.099243%);fill-opacity:1;" d="M 103.945313 63.554688 L 102.976563 63.554688 L 102.976563 56.558594 L 101.007813 56.558594 L 101.007813 55.699219 L 105.925781 55.699219 L 105.925781 56.558594 L 103.945313 56.558594 L 103.945313 63.554688 "/>
</g>
<g clip-path="url(#clip12)" clip-rule="nonzero">
<path style=" stroke:none;fill-rule:nonzero;fill:rgb(9.799194%,19.198608%,36.099243%);fill-opacity:1;" d="M 108.640625 55.699219 L 112.699219 55.699219 L 112.699219 56.558594 L 109.609375 56.558594 L 109.609375 59.023438 L 112.523438 59.023438 L 112.523438 59.882813 L 109.609375 59.882813 L 109.609375 62.699219 L 112.832031 62.699219 L 112.832031 63.554688 L 108.640625 63.554688 L 108.640625 55.699219 "/>
</g>
<g clip-path="url(#clip13)" clip-rule="nonzero">
<path style=" stroke:none;fill-rule:nonzero;fill:rgb(9.799194%,19.198608%,36.099243%);fill-opacity:1;" d="M 120.355469 55.699219 L 121.324219 55.699219 L 121.324219 63.554688 L 120.355469 63.554688 L 120.355469 55.699219 "/>
</g>
<g clip-path="url(#clip14)" clip-rule="nonzero">
<path style=" stroke:none;fill-rule:nonzero;fill:rgb(9.799194%,19.198608%,36.099243%);fill-opacity:1;" d="M 124.589844 55.699219 L 125.84375 55.699219 L 128.441406 62.257813 L 128.464844 62.257813 L 128.464844 55.699219 L 129.433594 55.699219 L 129.433594 63.554688 L 128.101563 63.554688 L 125.582031 57.195313 L 125.558594 57.195313 L 125.558594 63.554688 L 124.589844 63.554688 L 124.589844 55.699219 "/>
</g>
<g clip-path="url(#clip15)" clip-rule="nonzero">
<path style=" stroke:none;fill-rule:nonzero;fill:rgb(9.799194%,19.198608%,36.099243%);fill-opacity:1;" d="M 132.039063 55.699219 L 133.050781 55.699219 L 134.589844 62.445313 L 134.613281 62.445313 L 136.152344 55.699219 L 137.164063 55.699219 L 135.183594 63.554688 L 133.953125 63.554688 L 132.039063 55.699219 "/>
</g>
<g clip-path="url(#clip16)" clip-rule="nonzero">
<path style=" stroke:none;fill-rule:nonzero;fill:rgb(9.799194%,19.198608%,36.099243%);fill-opacity:1;" d="M 139.769531 55.699219 L 143.828125 55.699219 L 143.828125 56.558594 L 140.738281 56.558594 L 140.738281 59.023438 L 143.652344 59.023438 L 143.652344 59.882813 L 140.738281 59.882813 L 140.738281 62.699219 L 143.960938 62.699219 L 143.960938 63.554688 L 139.769531 63.554688 L 139.769531 55.699219 "/>
</g>
<g clip-path="url(#clip17)" clip-rule="nonzero">
<path style=" stroke:none;fill-rule:nonzero;fill:rgb(9.799194%,19.198608%,36.099243%);fill-opacity:1;" d="M 150.1875 57.738281 C 150.1875 56.910156 149.890625 56.339844 148.96875 56.339844 C 148.140625 56.339844 147.667969 56.777344 147.667969 57.617188 C 147.667969 59.828125 151.375 58.507813 151.375 61.378906 C 151.375 63.191406 150.046875 63.710938 148.933594 63.710938 C 147.097656 63.710938 146.558594 62.765625 146.558594 61.089844 L 147.523438 61.089844 C 147.523438 61.972656 147.589844 62.917969 149 62.917969 C 149.769531 62.917969 150.363281 62.367188 150.363281 61.53125 C 150.363281 59.308594 146.65625 60.597656 146.65625 57.714844 C 146.65625 56.988281 146.964844 55.546875 148.957031 55.546875 C 150.464844 55.546875 151.121094 56.285156 151.15625 57.738281 L 150.1875 57.738281 "/>
</g>
<g clip-path="url(#clip18)" clip-rule="nonzero">
<path style=" stroke:none;fill-rule:nonzero;fill:rgb(9.799194%,19.198608%,36.099243%);fill-opacity:1;" d="M 156.734375 63.554688 L 155.765625 63.554688 L 155.765625 56.558594 L 153.796875 56.558594 L 153.796875 55.699219 L 158.714844 55.699219 L 158.714844 56.558594 L 156.734375 56.558594 L 156.734375 63.554688 "/>
</g>
<g clip-path="url(#clip19)" clip-rule="nonzero">
<path style=" stroke:none;fill-rule:nonzero;fill:rgb(9.799194%,19.198608%,36.099243%);fill-opacity:1;" d="M 161.453125 55.699219 L 163.078125 55.699219 L 164.652344 61.929688 L 164.675781 61.929688 L 166.246094 55.699219 L 167.875 55.699219 L 167.875 63.554688 L 166.90625 63.554688 L 166.90625 56.691406 L 166.886719 56.691406 L 165.148438 63.554688 L 164.179688 63.554688 L 162.441406 56.691406 L 162.421875 56.691406 L 162.421875 63.554688 L 161.453125 63.554688 L 161.453125 55.699219 "/>
</g>
<g clip-path="url(#clip20)" clip-rule="nonzero">
<path style=" stroke:none;fill-rule:nonzero;fill:rgb(9.799194%,19.198608%,36.099243%);fill-opacity:1;" d="M 171.164063 55.699219 L 175.222656 55.699219 L 175.222656 56.558594 L 172.132813 56.558594 L 172.132813 59.023438 L 175.046875 59.023438 L 175.046875 59.882813 L 172.132813 59.882813 L 172.132813 62.699219 L 175.355469 62.699219 L 175.355469 63.554688 L 171.164063 63.554688 L 171.164063 55.699219 "/>
</g>
<g clip-path="url(#clip21)" clip-rule="nonzero">
<path style=" stroke:none;fill-rule:nonzero;fill:rgb(9.799194%,19.198608%,36.099243%);fill-opacity:1;" d="M 178.246094 55.699219 L 179.503906 55.699219 L 182.097656 62.257813 L 182.121094 62.257813 L 182.121094 55.699219 L 183.089844 55.699219 L 183.089844 63.554688 L 181.757813 63.554688 L 179.238281 57.195313 L 179.21875 57.195313 L 179.21875 63.554688 L 178.246094 63.554688 L 178.246094 55.699219 "/>
</g>
<g clip-path="url(#clip22)" clip-rule="nonzero">
<path style=" stroke:none;fill-rule:nonzero;fill:rgb(9.799194%,19.198608%,36.099243%);fill-opacity:1;" d="M 188.742188 63.554688 L 187.773438 63.554688 L 187.773438 56.558594 L 185.804688 56.558594 L 185.804688 55.699219 L 190.722656 55.699219 L 190.722656 56.558594 L 188.742188 56.558594 L 188.742188 63.554688 "/>
</g>
<g clip-path="url(#clip23)" clip-rule="nonzero">
<path style=" stroke:none;fill-rule:nonzero;fill:rgb(9.799194%,19.198608%,36.099243%);fill-opacity:1;" d="M 198.09375 55.699219 L 199.722656 55.699219 L 201.292969 61.929688 L 201.316406 61.929688 L 202.890625 55.699219 L 204.519531 55.699219 L 204.519531 63.554688 L 203.550781 63.554688 L 203.550781 56.691406 L 203.527344 56.691406 L 201.789063 63.554688 L 200.820313 63.554688 L 199.082031 56.691406 L 199.0625 56.691406 L 199.0625 63.554688 L 198.09375 63.554688 L 198.09375 55.699219 "/>
</g>
<g clip-path="url(#clip24)" clip-rule="nonzero">
<path style=" stroke:none;fill-rule:nonzero;fill:rgb(9.799194%,19.198608%,36.099243%);fill-opacity:1;" d="M 208.871094 60.609375 L 210.984375 60.609375 L 209.984375 56.8125 L 209.960938 56.8125 Z M 209.347656 55.699219 L 210.644531 55.699219 L 212.757813 63.554688 L 211.742188 63.554688 L 211.183594 61.398438 L 208.675781 61.398438 L 208.089844 63.554688 L 207.078125 63.554688 L 209.347656 55.699219 "/>
</g>
<g clip-path="url(#clip25)" clip-rule="nonzero">
<path style=" stroke:none;fill-rule:nonzero;fill:rgb(9.799194%,19.198608%,36.099243%);fill-opacity:1;" d="M 215.296875 55.699219 L 216.550781 55.699219 L 219.144531 62.257813 L 219.167969 62.257813 L 219.167969 55.699219 L 220.136719 55.699219 L 220.136719 63.554688 L 218.804688 63.554688 L 216.285156 57.195313 L 216.265625 57.195313 L 216.265625 63.554688 L 215.296875 63.554688 L 215.296875 55.699219 "/>
</g>
<g clip-path="url(#clip26)" clip-rule="nonzero">
<path style=" stroke:none;fill-rule:nonzero;fill:rgb(9.799194%,19.198608%,36.099243%);fill-opacity:1;" d="M 224.472656 60.609375 L 226.582031 60.609375 L 225.582031 56.8125 L 225.558594 56.8125 Z M 224.945313 55.699219 L 226.242188 55.699219 L 228.355469 63.554688 L 227.34375 63.554688 L 226.78125 61.398438 L 224.273438 61.398438 L 223.6875 63.554688 L 222.679688 63.554688 L 224.945313 55.699219 "/>
</g>
<g clip-path="url(#clip27)" clip-rule="nonzero">
<path style=" stroke:none;fill-rule:nonzero;fill:rgb(9.799194%,19.198608%,36.099243%);fill-opacity:1;" d="M 234.621094 57.878906 C 234.566406 57.054688 234.28125 56.339844 233.3125 56.339844 C 231.972656 56.339844 231.796875 57.8125 231.796875 59.628906 C 231.796875 61.445313 231.972656 62.917969 233.3125 62.917969 C 234.65625 62.917969 234.757813 61.3125 234.757813 60.265625 L 233.203125 60.265625 L 233.203125 59.476563 L 235.636719 59.476563 L 235.636719 63.554688 L 234.910156 63.554688 L 234.910156 62.488281 L 234.886719 62.488281 C 234.679688 63.160156 234.0625 63.710938 233.191406 63.710938 C 231.136719 63.710938 230.785156 61.742188 230.785156 59.628906 C 230.785156 57.648438 231.148438 55.546875 233.3125 55.546875 C 235.558594 55.546875 235.636719 57.472656 235.636719 57.878906 L 234.621094 57.878906 "/>
</g>
<g clip-path="url(#clip28)" clip-rule="nonzero">
<path style=" stroke:none;fill-rule:nonzero;fill:rgb(9.799194%,19.198608%,36.099243%);fill-opacity:1;" d="M 238.792969 55.699219 L 242.851563 55.699219 L 242.851563 56.558594 L 239.761719 56.558594 L 239.761719 59.023438 L 242.675781 59.023438 L 242.675781 59.882813 L 239.761719 59.882813 L 239.761719 62.699219 L 242.984375 62.699219 L 242.984375 63.554688 L 238.792969 63.554688 L 238.792969 55.699219 "/>
</g>
<g clip-path="url(#clip29)" clip-rule="nonzero">
<path style=" stroke:none;fill-rule:nonzero;fill:rgb(9.799194%,19.198608%,36.099243%);fill-opacity:1;" d="M 245.898438 55.699219 L 247.527344 55.699219 L 249.101563 61.929688 L 249.121094 61.929688 L 250.695313 55.699219 L 252.324219 55.699219 L 252.324219 63.554688 L 251.355469 63.554688 L 251.355469 56.691406 L 251.332031 56.691406 L 249.59375 63.554688 L 248.628906 63.554688 L 246.890625 56.691406 L 246.867188 56.691406 L 246.867188 63.554688 L 245.898438 63.554688 L 245.898438 55.699219 "/>
</g>
<g clip-path="url(#clip30)" clip-rule="nonzero">
<path style=" stroke:none;fill-rule:nonzero;fill:rgb(9.799194%,19.198608%,36.099243%);fill-opacity:1;" d="M 255.609375 55.699219 L 259.671875 55.699219 L 259.671875 56.558594 L 256.578125 56.558594 L 256.578125 59.023438 L 259.492188 59.023438 L 259.492188 59.882813 L 256.578125 59.882813 L 256.578125 62.699219 L 259.804688 62.699219 L 259.804688 63.554688 L 255.609375 63.554688 L 255.609375 55.699219 "/>
</g>
<g clip-path="url(#clip31)" clip-rule="nonzero">
<path style=" stroke:none;fill-rule:nonzero;fill:rgb(9.799194%,19.198608%,36.099243%);fill-opacity:1;" d="M 262.695313 55.699219 L 263.949219 55.699219 L 266.546875 62.257813 L 266.566406 62.257813 L 266.566406 55.699219 L 267.535156 55.699219 L 267.535156 63.554688 L 266.203125 63.554688 L 263.683594 57.195313 L 263.664063 57.195313 L 263.664063 63.554688 L 262.695313 63.554688 L 262.695313 55.699219 "/>
</g>
<g clip-path="url(#clip32)" clip-rule="nonzero">
<path style=" stroke:none;fill-rule:nonzero;fill:rgb(9.799194%,19.198608%,36.099243%);fill-opacity:1;" d="M 273.1875 63.554688 L 272.222656 63.554688 L 272.222656 56.558594 L 270.253906 56.558594 L 270.253906 55.699219 L 275.171875 55.699219 L 275.171875 56.558594 L 273.1875 56.558594 L 273.1875 63.554688 "/>
</g>
<g clip-path="url(#clip33)" clip-rule="nonzero">
<path style=" stroke:none;fill-rule:nonzero;fill:rgb(9.799194%,19.198608%,36.099243%);fill-opacity:1;" d="M 282.515625 55.699219 L 286.574219 55.699219 L 286.574219 56.558594 L 283.484375 56.558594 L 283.484375 59.023438 L 286.398438 59.023438 L 286.398438 59.882813 L 283.484375 59.882813 L 283.484375 63.554688 L 282.515625 63.554688 L 282.515625 55.699219 "/>
</g>
<g clip-path="url(#clip34)" clip-rule="nonzero">
<path style=" stroke:none;fill-rule:nonzero;fill:rgb(9.799194%,19.198608%,36.099243%);fill-opacity:1;" d="M 289.390625 55.699219 L 290.359375 55.699219 L 290.359375 63.554688 L 289.390625 63.554688 L 289.390625 55.699219 "/>
</g>
<g clip-path="url(#clip35)" clip-rule="nonzero">
<path style=" stroke:none;fill-rule:nonzero;fill:rgb(9.799194%,19.198608%,36.099243%);fill-opacity:1;" d="M 294.59375 59.265625 L 295.550781 59.265625 C 296.125 59.265625 297.167969 59.277344 297.167969 57.746094 C 297.167969 56.964844 296.664063 56.492188 295.75 56.492188 L 294.59375 56.492188 Z M 293.625 55.699219 L 296.167969 55.699219 C 297.410156 55.699219 298.179688 56.425781 298.179688 57.671875 C 298.179688 58.507813 297.882813 59.441406 296.972656 59.648438 L 296.972656 59.671875 C 297.664063 59.75 298.039063 60.3125 298.082031 60.980469 L 298.148438 62.324219 C 298.179688 63.191406 298.335938 63.414063 298.566406 63.554688 L 297.398438 63.554688 C 297.222656 63.378906 297.167969 62.808594 297.136719 62.421875 L 297.070313 61.203125 C 296.980469 60.125 296.398438 60.058594 295.902344 60.058594 L 294.59375 60.058594 L 294.59375 63.554688 L 293.625 63.554688 L 293.625 55.699219 "/>
</g>
<g clip-path="url(#clip36)" clip-rule="nonzero">
<path style=" stroke:none;fill-rule:nonzero;fill:rgb(9.799194%,19.198608%,36.099243%);fill-opacity:1;" d="M 301.347656 55.699219 L 302.976563 55.699219 L 304.550781 61.929688 L 304.570313 61.929688 L 306.144531 55.699219 L 307.773438 55.699219 L 307.773438 63.554688 L 306.804688 63.554688 L 306.804688 56.691406 L 306.78125 56.691406 L 305.046875 63.554688 L 304.078125 63.554688 L 302.339844 56.691406 L 302.316406 56.691406 L 302.316406 63.554688 L 301.347656 63.554688 L 301.347656 55.699219 "/>
</g>
</g>
</svg>
