<?xml version="1.0" encoding="UTF-8"?> <svg xmlns="http://www.w3.org/2000/svg" width="222" height="31" viewBox="0 0 222 31" fill="none"><g clip-path="url(#clip0_688_5277)"><path d="M30.1562 0.969231V30.0277H0.973278V0.969231H30.1562ZM31.1294 0H0V31H31.1294V0Z" fill="#162835"></path><path d="M6.64317 5.04614C5.77494 5.04614 5.06738 5.75076 5.06738 6.61537C5.06738 7.47999 5.77494 8.1846 6.64317 8.1846C7.51139 8.1846 8.21895 7.47999 8.21895 6.61537C8.21895 5.75076 7.51139 5.04614 6.64317 5.04614Z" fill="#CDA24E"></path><path d="M12.5445 4.83081C11.5558 4.83081 10.7524 5.63081 10.7524 6.61543C10.7524 7.60004 11.5558 8.39696 12.5445 8.39696C13.5332 8.39696 14.3335 7.59696 14.3335 6.61543C14.3335 5.63389 13.5301 4.83081 12.5445 4.83081Z" fill="#C69739"></path><path d="M18.443 4.54761C17.2998 4.54761 16.3667 5.47376 16.3667 6.6153C16.3667 7.75684 17.2998 8.68299 18.443 8.68299C19.5862 8.68299 20.5194 7.75376 20.5194 6.6153C20.5194 5.47684 19.5862 4.54761 18.443 4.54761Z" fill="#C3912D"></path><path d="M24.3443 4.3877C23.1114 4.3877 22.1104 5.38462 22.1104 6.61231C22.1104 7.84 23.1114 8.83693 24.3443 8.83693C25.5771 8.83693 26.5782 7.84 26.5782 6.61231C26.5782 5.38462 25.5771 4.3877 24.3443 4.3877Z" fill="#C08B22"></path><path d="M6.6429 10.9939C5.81484 10.9939 5.13818 11.6647 5.13818 12.4924C5.13818 13.3201 5.81484 13.9908 6.6429 13.9908C7.47096 13.9908 8.14453 13.3201 8.14453 12.4924C8.14453 11.6647 7.47096 10.9939 6.6429 10.9939Z" fill="#D6B36F"></path><path d="M12.5442 10.7786C11.5957 10.7786 10.8232 11.5478 10.8232 12.4924C10.8232 13.437 11.5957 14.2032 12.5442 14.2032C13.4928 14.2032 14.2622 13.4339 14.2622 12.4924C14.2622 11.5509 13.4928 10.7786 12.5442 10.7786Z" fill="#CDA24E"></path><path d="M6.64282 17.1538C5.97234 17.1538 5.42236 17.6984 5.42236 18.3661C5.42236 19.0338 5.96925 19.5784 6.64282 19.5784C7.31639 19.5784 7.86019 19.0369 7.86019 18.3661C7.86019 17.6953 7.3133 17.1538 6.64282 17.1538Z" fill="#DCBF86"></path><path d="M12.5447 23.0308C11.8742 23.0308 11.3242 23.5723 11.3242 24.2431C11.3242 24.9138 11.8711 25.4554 12.5447 25.4554C13.2182 25.4554 13.762 24.9138 13.762 24.2431C13.762 23.5723 13.2152 23.0308 12.5447 23.0308Z" fill="#DCBF86"></path><path d="M12.5443 16.8708C11.7162 16.8708 11.0396 17.5416 11.0396 18.3662C11.0396 19.1908 11.7162 19.8647 12.5443 19.8647C13.3723 19.8647 14.049 19.1908 14.049 18.3662C14.049 17.5416 13.3754 16.8708 12.5443 16.8708Z" fill="#D3AE65"></path><path d="M24.3444 10.4216C23.2012 10.4216 22.2681 11.3509 22.2681 12.4893C22.2681 13.6278 23.2012 14.557 24.3444 14.557C25.4876 14.557 26.4238 13.6278 26.4238 12.4893C26.4238 11.3509 25.4907 10.4216 24.3444 10.4216Z" fill="#C3912D"></path><path d="M18.443 10.637C17.4172 10.637 16.583 11.4677 16.583 12.4923C16.583 13.517 17.4172 14.3477 18.443 14.3477C19.4689 14.3477 20.3062 13.5139 20.3062 12.4923C20.3062 11.4708 19.4719 10.637 18.443 10.637Z" fill="#C69739"></path><path d="M18.443 16.6553C17.4944 16.6553 16.7251 17.4214 16.7251 18.366C16.7251 19.3107 17.4975 20.0799 18.443 20.0799C19.3885 20.0799 20.164 19.3137 20.164 18.366C20.164 17.4183 19.3916 16.6553 18.443 16.6553Z" fill="#CDA24E"></path><path d="M24.3443 16.5815C23.3556 16.5815 22.5522 17.3815 22.5522 18.3631C22.5522 19.3446 23.3556 20.1477 24.3443 20.1477C25.333 20.1477 26.1333 19.3477 26.1333 18.3631C26.1333 17.3785 25.33 16.5815 24.3443 16.5815Z" fill="#C69739"></path><path d="M18.4427 22.7446C17.6146 22.7446 16.938 23.4154 16.938 24.24C16.938 25.0646 17.6146 25.7385 18.4427 25.7385C19.2708 25.7385 19.9474 25.0677 19.9474 24.24C19.9474 23.4123 19.2739 22.7446 18.4427 22.7446Z" fill="#D6B36F"></path><path d="M24.3443 22.6738C23.4761 22.6738 22.7686 23.3784 22.7686 24.2431C22.7686 25.1077 23.4761 25.8123 24.3443 25.8123C25.2126 25.8123 25.9201 25.1077 25.9201 24.2431C25.9201 23.3784 25.2126 22.6738 24.3443 22.6738Z" fill="#CDA24E"></path><path d="M61.2947 22.5291V25.6245H49.0654V5.37524H52.492V22.5322H61.2947V22.5291Z" fill="#162835"></path><path d="M93.4591 17.1631C93.4591 22.4554 90.1191 25.6984 84.6285 25.6984C79.138 25.6984 75.7671 22.4584 75.7671 17.1631V5.30151H79.1936V17.1631C79.1936 20.5784 81.3163 22.6307 84.6564 22.6307C87.9964 22.6307 90.0326 20.6061 90.0326 17.1631V5.30151H93.4591V17.1631Z" fill="#162835"></path><path d="M126.396 25.6984L126.365 10.4584L119.898 23.5723H117.646L111.179 10.4584V25.6984H107.932V5.30151H112.026L118.786 18.8523L125.516 5.30151H129.585V25.6984H126.396Z" fill="#162835"></path><path d="M187.79 25.6585L176.917 11.0892V25.6585H173.481V5.34155H176.862L187.79 19.9416V5.34155H191.173V25.6585H187.79Z" fill="#162835"></path><path d="M215.527 8.4153V25.6615H212.088V8.4153H205.646V5.33838H222.003V8.4153H215.53H215.527Z" fill="#162835"></path><path d="M147.502 16.9815V16.8276H157.575V13.7538H147.502V8.40608L153.042 8.39992H159.005V8.39377V7.30761V5.323H144.057V8.39377V13.7538V16.8276V25.6768H159.005V22.5938H147.502V16.9815Z" fill="#162835"></path></g><defs><clipPath id="clip0_688_5277"><rect width="222" height="31" fill="white"></rect></clipPath></defs></svg> 