<?xml version="1.0" encoding="utf-8"?>
<!-- Generator: Adobe Illustrator 21.0.0, SVG Export Plug-In . SVG Version: 6.00 Build 0)  -->
<svg version="1.1" id="_x2014_ÎÓÈ_x5F_1" xmlns="http://www.w3.org/2000/svg" xmlns:xlink="http://www.w3.org/1999/xlink"
	 x="0px" y="0px" viewBox="0 0 400 400" style="enable-background:new 0 0 400 400;" xml:space="preserve">
<style type="text/css">
	.st0{fill:#42E8E0;}
	.st1{opacity:0.5;fill:url(#SVGID_1_);enable-background:new    ;}
	.st2{opacity:0.5;fill:url(#SVGID_2_);enable-background:new    ;}
	.st3{fill:#24126A;}
	.st4{fill:url(#SVGID_3_);}
	.st5{fill:url(#SVGID_4_);}
	.st6{fill:url(#SVGID_5_);}
	.st7{fill:url(#SVGID_6_);}
	.st8{fill:url(#SVGID_7_);}
	.st9{fill:url(#SVGID_8_);}
	.st10{fill:#5351AF;}
	.st11{fill:url(#SVGID_9_);}
	.st12{fill:#515151;}
	.st13{fill:url(#SVGID_10_);}
	.st14{fill:#2D2D2D;}
	.st15{fill:#160A5B;}
	.st16{fill:#453C9E;}
	.st17{fill:#FCD1C5;}
	.st18{fill:#F0F6FF;}
	.st19{fill:#C4CCD6;}
	.st20{fill:#E2B1A6;}
	.st21{fill:#AA8383;}
	.st22{fill:#936D6D;}
	.st23{fill:#263649;}
	.st24{clip-path:url(#SVGID_12_);fill:#334659;}
	.st25{clip-path:url(#SVGID_14_);fill:#263649;}
	.st26{fill:url(#SVGID_15_);}
	.st27{opacity:0.5;fill:url(#SVGID_16_);enable-background:new    ;}
	.st28{fill:url(#SVGID_17_);}
	.st29{fill:url(#SVGID_18_);}
	.st30{fill:#FFFFFF;}
	.st31{opacity:0.3;fill:#180D5B;enable-background:new    ;}
	.st32{fill:#4846A5;}
	.st33{opacity:0.63;fill:#2D2D2D;enable-background:new    ;}
	.st34{fill:url(#SVGID_19_);}
	.st35{fill:url(#SVGID_20_);}
	.st36{fill:#ADB1F2;}
	.st37{fill:#9198DB;}
	.st38{fill:url(#SVGID_21_);}
	.st39{fill:url(#SVGID_22_);}
	.st40{fill:url(#SVGID_23_);}
	.st41{opacity:0.6;}
</style>
<g>
	<g>
		<g>
			<path class="st0" d="M382.168,244.538l-19.225-10.764c-4.312-2.415-8.105-7.731-9.436-13.229l-16.65-68.788
				c-1.968-8.133-8.509-14-13.146-14.179c-2.322-0.095-3.983,1.179-4.792,3.668l-5.016,15.416c-0.58,1.783-1.674,3.028-3.163,3.599
				c-1.796,0.691-4.058,0.335-6.37-1.002l-3.471-2.004c-4.082-2.355-7.66-7.262-9.118-12.498
				c-2.192-7.872-8.283-13.147-12.669-13.519c-2.173-0.194-3.826,0.794-4.787,2.83l-5.505,11.665
				c-0.674,1.431-1.753,2.413-3.117,2.839c-1.74,0.546-3.899,0.153-6.075-1.104l-3.974-2.293c-4.36-2.518-8.121-7.928-9.361-13.463
				l-16.64-74.308c-1.826-8.151-8.344-14.175-13.054-14.482c-2.308-0.136-3.999,1.028-4.871,3.41l-27.02,73.833
				c-0.613,1.674-1.702,2.838-3.153,3.364c-1.782,0.65-4.016,0.282-6.288-1.033l-13.664-7.889l0.23-0.396l13.664,7.889
				c2.153,1.242,4.251,1.599,5.902,0.998c1.319-0.479,2.316-1.548,2.88-3.09l27.02-73.833c0.935-2.557,2.82-3.869,5.332-3.711
				c4.871,0.318,11.603,6.491,13.472,14.839l16.637,74.308c1.193,5.333,4.953,10.747,9.142,13.165l3.974,2.294
				c2.064,1.192,4.092,1.572,5.71,1.064c1.239-0.387,2.22-1.285,2.84-2.596l5.505-11.665c1.035-2.193,2.892-3.294,5.24-3.092
				c4.539,0.385,10.828,5.792,13.072,13.854c1.405,5.047,4.984,9.959,8.905,12.223l3.471,2.005c2.19,1.263,4.31,1.608,5.978,0.969
				c1.355-0.52,2.355-1.665,2.891-3.314l5.016-15.416c0.867-2.665,2.744-4.062,5.246-3.983c4.904,0.189,11.528,6.071,13.576,14.528
				l16.65,68.789c1.304,5.382,5.005,10.58,9.213,12.936l19.226,10.763L382.168,244.538z"/>
			<path class="st0" d="M367.579,252.922l-19.225-10.763c-4.313-2.416-8.106-7.732-9.436-13.229l-16.651-68.789
				c-1.968-8.133-8.509-14-13.145-14.179c-2.337-0.082-3.984,1.18-4.793,3.668l-5.015,15.416c-0.581,1.783-1.674,3.027-3.162,3.599
				c-1.799,0.691-4.06,0.335-6.372-1.002l-3.471-2.002c-4.019-2.322-7.684-7.345-9.118-12.499
				c-2.191-7.872-8.282-13.147-12.669-13.52c-2.171-0.189-3.825,0.794-4.786,2.83l-5.506,11.665
				c-0.674,1.431-1.752,2.413-3.116,2.839c-1.741,0.547-3.9,0.153-6.076-1.104l-3.973-2.293c-4.359-2.517-8.121-7.927-9.362-13.462
				l-16.636-74.308c-1.825-8.151-8.345-14.176-13.055-14.483c-2.303-0.134-3.999,1.029-4.871,3.41l-27.02,73.834
				c-0.613,1.674-1.702,2.838-3.154,3.365c-1.779,0.648-4.015,0.281-6.287-1.034l-13.665-7.888l0.23-0.397l13.665,7.888
				c2.153,1.244,4.247,1.596,5.902,1c1.318-0.479,2.315-1.548,2.879-3.09l27.02-73.834c0.936-2.557,2.841-3.876,5.332-3.711
				c4.873,0.319,11.604,6.492,13.473,14.84l16.636,74.308c1.194,5.334,4.954,10.747,9.143,13.164l3.973,2.293
				c2.065,1.192,4.094,1.57,5.711,1.064c1.239-0.387,2.22-1.285,2.839-2.596l5.506-11.665c1.034-2.193,2.897-3.286,5.24-3.092
				c4.538,0.386,10.828,5.792,13.071,13.855c1.405,5.046,4.984,9.958,8.905,12.224l3.471,2.002c2.19,1.266,4.314,1.608,5.979,0.971
				c1.355-0.52,2.355-1.666,2.891-3.315l5.015-15.416c0.868-2.665,2.757-4.08,5.247-3.983c4.902,0.189,11.527,6.072,13.575,14.528
				l16.651,68.789c1.303,5.381,5.004,10.58,9.213,12.937l19.225,10.763L367.579,252.922z"/>
			
				<rect x="198.036" y="47.255" transform="matrix(0.8667 -0.4989 0.4989 0.8667 3.8459 109.3601)" class="st0" width="16.967" height="0.459"/>
			
				<rect x="260.075" y="135.713" transform="matrix(0.8666 -0.4991 0.4991 0.8666 -31.9945 152.2243)" class="st0" width="17.179" height="0.459"/>
			<polygon class="st0" points="306.185,146.813 305.956,146.415 321.467,137.514 321.697,137.912 			"/>
			<path class="st0" d="M382.168,244.538l-19.225-10.764c-4.312-2.415-8.105-7.731-9.436-13.229l-16.65-68.788
				c-1.968-8.133-8.509-14-13.146-14.179c-2.322-0.095-3.983,1.179-4.792,3.668l-5.016,15.416c-0.58,1.783-1.674,3.028-3.163,3.599
				c-1.796,0.691-4.058,0.335-6.37-1.002l-3.471-2.004c-4.082-2.355-7.66-7.262-9.118-12.498
				c-2.192-7.872-8.283-13.147-12.669-13.519c-2.173-0.194-3.826,0.794-4.787,2.83l-5.505,11.665
				c-0.674,1.431-1.753,2.413-3.117,2.839c-1.74,0.546-3.899,0.153-6.075-1.104l-3.974-2.293c-4.36-2.518-8.121-7.928-9.361-13.463
				l-16.64-74.308c-1.826-8.151-8.344-14.175-13.054-14.482c-2.308-0.136-3.999,1.028-4.871,3.41l-27.02,73.833
				c-0.613,1.674-1.702,2.838-3.153,3.364c-1.782,0.65-4.016,0.282-6.288-1.033l-13.664-7.889l0.23-0.396l13.664,7.889
				c2.153,1.242,4.251,1.599,5.902,0.998c1.319-0.479,2.316-1.548,2.88-3.09l27.02-73.833c0.935-2.557,2.82-3.869,5.332-3.711
				c4.871,0.318,11.603,6.491,13.472,14.839l16.637,74.308c1.193,5.333,4.953,10.747,9.142,13.165l3.974,2.294
				c2.064,1.192,4.092,1.572,5.71,1.064c1.239-0.387,2.22-1.285,2.84-2.596l5.505-11.665c1.035-2.193,2.892-3.294,5.24-3.092
				c4.539,0.385,10.828,5.792,13.072,13.854c1.405,5.047,4.984,9.959,8.905,12.223l3.471,2.005c2.19,1.263,4.31,1.608,5.978,0.969
				c1.355-0.52,2.355-1.665,2.891-3.314l5.016-15.416c0.867-2.665,2.744-4.062,5.246-3.983c4.904,0.189,11.528,6.071,13.576,14.528
				l16.65,68.789c1.304,5.382,5.005,10.58,9.213,12.936l19.226,10.763L382.168,244.538z"/>
			<path class="st0" d="M367.579,252.922l-19.225-10.763c-4.313-2.416-8.106-7.732-9.436-13.229l-16.651-68.789
				c-1.968-8.133-8.509-14-13.145-14.179c-2.337-0.082-3.984,1.18-4.793,3.668l-5.015,15.416c-0.581,1.783-1.674,3.027-3.162,3.599
				c-1.799,0.691-4.06,0.335-6.372-1.002l-3.471-2.002c-4.019-2.322-7.684-7.345-9.118-12.499
				c-2.191-7.872-8.282-13.147-12.669-13.52c-2.171-0.189-3.825,0.794-4.786,2.83l-5.506,11.665
				c-0.674,1.431-1.752,2.413-3.116,2.839c-1.741,0.547-3.9,0.153-6.076-1.104l-3.973-2.293c-4.359-2.517-8.121-7.927-9.362-13.462
				l-16.636-74.308c-1.825-8.151-8.345-14.176-13.055-14.483c-2.303-0.134-3.999,1.029-4.871,3.41l-27.02,73.834
				c-0.613,1.674-1.702,2.838-3.154,3.365c-1.779,0.648-4.015,0.281-6.287-1.034l-13.665-7.888l0.23-0.397l13.665,7.888
				c2.153,1.244,4.247,1.596,5.902,1c1.318-0.479,2.315-1.548,2.879-3.09l27.02-73.834c0.936-2.557,2.841-3.876,5.332-3.711
				c4.873,0.319,11.604,6.492,13.473,14.84l16.636,74.308c1.194,5.334,4.954,10.747,9.143,13.164l3.973,2.293
				c2.065,1.192,4.094,1.57,5.711,1.064c1.239-0.387,2.22-1.285,2.839-2.596l5.506-11.665c1.034-2.193,2.897-3.286,5.24-3.092
				c4.538,0.386,10.828,5.792,13.071,13.855c1.405,5.046,4.984,9.958,8.905,12.224l3.471,2.002c2.19,1.266,4.314,1.608,5.979,0.971
				c1.355-0.52,2.355-1.666,2.891-3.315l5.015-15.416c0.868-2.665,2.757-4.08,5.247-3.983c4.902,0.189,11.527,6.072,13.575,14.528
				l16.651,68.789c1.303,5.381,5.004,10.58,9.213,12.937l19.225,10.763L367.579,252.922z"/>
		</g>
		
			<linearGradient id="SVGID_1_" gradientUnits="userSpaceOnUse" x1="161.7154" y1="258.493" x2="382.2815" y2="258.493" gradientTransform="matrix(1 0 0 -1 0 402)">
			<stop  offset="0" style="stop-color:#42E8E0"/>
			<stop  offset="0.1055" style="stop-color:#37B6BF"/>
			<stop  offset="0.2197" style="stop-color:#2C87A1"/>
			<stop  offset="0.338" style="stop-color:#235F87"/>
			<stop  offset="0.4587" style="stop-color:#1C3F72"/>
			<stop  offset="0.5824" style="stop-color:#162561"/>
			<stop  offset="0.7105" style="stop-color:#121355"/>
			<stop  offset="0.8458" style="stop-color:#10084E"/>
			<stop  offset="1" style="stop-color:#0F054C"/>
		</linearGradient>
		<path class="st1" d="M161.715,114.409l13.664,7.889c4.104,2.369,7.76,1.483,9.112-2.212l27.021-73.834
			c3.086-8.432,15.697-0.808,18.364,11.101l16.637,74.308c1.216,5.431,4.98,10.847,9.252,13.313l3.974,2.294
			c3.861,2.229,7.351,1.587,8.872-1.634l5.505-11.665c3.412-7.23,14.783-0.41,17.884,10.726l0,0
			c1.43,5.136,5.015,10.052,9.012,12.361l3.471,2.004c4.21,2.43,7.933,1.43,9.202-2.471l5.015-15.416
			c2.831-8.701,15.48-1.456,18.38,10.529l16.651,68.788c1.309,5.406,5.09,10.712,9.325,13.083l19.225,10.763L161.715,114.409z"/>
		
			<linearGradient id="SVGID_2_" gradientUnits="userSpaceOnUse" x1="147.1274" y1="250.3201" x2="367.6904" y2="250.3201" gradientTransform="matrix(1 0 0 -1 0 402)">
			<stop  offset="0" style="stop-color:#42E8E0"/>
			<stop  offset="0.1055" style="stop-color:#37B6BF"/>
			<stop  offset="0.2197" style="stop-color:#2C87A1"/>
			<stop  offset="0.338" style="stop-color:#235F87"/>
			<stop  offset="0.4587" style="stop-color:#1C3F72"/>
			<stop  offset="0.5824" style="stop-color:#162561"/>
			<stop  offset="0.7105" style="stop-color:#121355"/>
			<stop  offset="0.8458" style="stop-color:#10084E"/>
			<stop  offset="1" style="stop-color:#0F054C"/>
		</linearGradient>
		<path class="st2" d="M147.127,122.582l13.664,7.889c4.104,2.369,7.76,1.483,9.112-2.212l27.02-73.834
			c3.086-8.432,15.697-0.808,18.364,11.101l16.637,74.308c1.216,5.431,4.98,10.847,9.252,13.313l3.974,2.294
			c3.861,2.229,7.351,1.587,8.871-1.634l5.505-11.665c3.412-7.23,14.784-0.411,17.884,10.726l0,0
			c1.43,5.136,5.015,10.052,9.012,12.361l3.471,2.004c4.21,2.43,7.933,1.43,9.202-2.471l5.015-15.416
			c2.831-8.701,15.48-1.456,18.381,10.529l16.65,68.788c1.309,5.406,5.09,10.712,9.325,13.083l19.225,10.763L147.127,122.582z"/>
	</g>
	<path class="st0" d="M239.125,313.472c-1.982,0-3.964-0.51-5.733-1.531L103.999,237.26c-1.358-0.784-2.171-2.188-2.173-3.756
		c-0.002-1.569,0.806-2.977,2.164-3.765l79.592-46.212l0.108,0.063l135.035,77.938c1.358,0.785,2.171,2.189,2.173,3.758
		c0.002,1.568-0.806,2.976-2.164,3.764l-73.849,42.878C243.11,312.957,241.117,313.472,239.125,313.472z M233.606,311.569
		c3.414,1.97,7.653,1.965,11.062-0.015l73.849-42.878c1.222-0.709,1.951-1.978,1.949-3.392c-0.002-1.414-0.733-2.679-1.957-3.387
		l-134.927-77.876l-79.377,46.087c-1.222,0.709-1.951,1.978-1.949,3.392c0.002,1.414,0.734,2.679,1.958,3.386L233.606,311.569z"/>
	<g>
		<g>
			<g>
				<circle class="st3" cx="245.297" cy="276.794" r="3.541"/>
				<circle class="st3" cx="280.176" cy="237.228" r="3.541"/>
				<circle class="st3" cx="287.796" cy="264.267" r="3.541"/>
				<g>
					<circle class="st3" cx="211.277" cy="257.593" r="3.541"/>
					<circle class="st3" cx="233.17" cy="233.668" r="3.541"/>
					<g>
						
							<linearGradient id="SVGID_3_" gradientUnits="userSpaceOnUse" x1="249.895" y1="155.0521" x2="185.7419" y2="139.3948" gradientTransform="matrix(1 0 0 -1 0 402)">
							<stop  offset="0" style="stop-color:#5761D7"/>
							<stop  offset="0.1779" style="stop-color:#5C66D9"/>
							<stop  offset="0.3876" style="stop-color:#6A73DF"/>
							<stop  offset="0.6134" style="stop-color:#8289E8"/>
							<stop  offset="0.849" style="stop-color:#A3A7F5"/>
							<stop  offset="1" style="stop-color:#BCBEFF"/>
						</linearGradient>
						<path class="st4" d="M250.326,246.785l-38.934,7.499c-0.167,0.015-0.325,0.041-0.479,0.073l0.035-0.257l-1.872-0.473v2.21
							l0.008,0.001c-0.001,0.085,0.001,0.173,0.026,0.261c0.237,0.864,1.643,1.454,3.141,1.317l38.934-7.499L250.326,246.785z"/>
						
							<linearGradient id="SVGID_4_" gradientUnits="userSpaceOnUse" x1="250.3743" y1="160.7794" x2="321.3957" y2="160.7794" gradientTransform="matrix(1 0 0 -1 0 402)">
							<stop  offset="0" style="stop-color:#5761D7"/>
							<stop  offset="0.1779" style="stop-color:#5C66D9"/>
							<stop  offset="0.3876" style="stop-color:#6A73DF"/>
							<stop  offset="0.6134" style="stop-color:#8289E8"/>
							<stop  offset="0.849" style="stop-color:#A3A7F5"/>
							<stop  offset="1" style="stop-color:#BCBEFF"/>
						</linearGradient>
						<path class="st5" d="M282.936,233.429l-1.185,0.999c-1.019-0.443-2.583-0.343-3.648,0.273l-27.728,12.07l3.882,2.241
							l27.728-12.07c0.651-0.376,0.962-0.86,0.939-1.314l0.012,0.005V233.429z"/>
						
							<linearGradient id="SVGID_5_" gradientUnits="userSpaceOnUse" x1="242.3675" y1="162.3104" x2="225.7674" y2="178.3567" gradientTransform="matrix(1 0 0 -1 0 402)">
							<stop  offset="0" style="stop-color:#5761D7"/>
							<stop  offset="0.1779" style="stop-color:#5C66D9"/>
							<stop  offset="0.3876" style="stop-color:#6A73DF"/>
							<stop  offset="0.6134" style="stop-color:#8289E8"/>
							<stop  offset="0.849" style="stop-color:#A3A7F5"/>
							<stop  offset="1" style="stop-color:#BCBEFF"/>
						</linearGradient>
						<path class="st6" d="M235.796,230.734c-0.688-0.779-2.342-1.09-3.692-0.693l0,0c-0.161,0.047-0.308,0.103-0.445,0.165
							c-0.066-0.106-0.143-0.218-0.239-0.314c-0.246-0.246-0.813-0.583-0.813-0.583l-0.002,2.201c0,0,0.008-0.006,0.01-0.007
							c0.011,0.227,0.1,0.455,0.29,0.67l17.897,16.34l4.891-1.439L235.796,230.734z"/>
						
							<linearGradient id="SVGID_6_" gradientUnits="userSpaceOnUse" x1="251.2372" y1="146.2705" x2="312.9053" y2="146.2705" gradientTransform="matrix(1 0 0 -1 0 402)">
							<stop  offset="0" style="stop-color:#5761D7"/>
							<stop  offset="0.1779" style="stop-color:#5C66D9"/>
							<stop  offset="0.3876" style="stop-color:#6A73DF"/>
							<stop  offset="0.6134" style="stop-color:#8289E8"/>
							<stop  offset="0.849" style="stop-color:#A3A7F5"/>
							<stop  offset="1" style="stop-color:#BCBEFF"/>
						</linearGradient>
						<path class="st7" d="M290.352,260.524l-0.658,0.231l-0.377,0.785c-0.142-0.065-0.297-0.124-0.464-0.173l-35.124-14.272
							l-2.492,2.825l35.124,14.272c1.351,0.397,3.004,0.088,3.692-0.693l0,0c0.208-0.236,0.291-0.487,0.287-0.735l0.012,0.01
							L290.352,260.524z"/>
						
							<linearGradient id="SVGID_7_" gradientUnits="userSpaceOnUse" x1="242.6092" y1="139.3313" x2="254.2316" y2="139.3313" gradientTransform="matrix(1 0 0 -1 0 402)">
							<stop  offset="0" style="stop-color:#5761D7"/>
							<stop  offset="0.1779" style="stop-color:#5C66D9"/>
							<stop  offset="0.3876" style="stop-color:#6A73DF"/>
							<stop  offset="0.6134" style="stop-color:#8289E8"/>
							<stop  offset="0.849" style="stop-color:#A3A7F5"/>
							<stop  offset="1" style="stop-color:#BCBEFF"/>
						</linearGradient>
						<path class="st8" d="M248.809,248.543l-5.767,24.711l-0.431-0.22l-0.001,2.284l0.009-0.01
							c0.078,0.725,1.012,1.348,2.307,1.466c1.497,0.137,2.904-0.453,3.141-1.317l6.166-26.417L248.809,248.543z"/>
						
							<linearGradient id="SVGID_8_" gradientUnits="userSpaceOnUse" x1="246.3726" y1="150.8685" x2="327.65" y2="150.8685" gradientTransform="matrix(1 0 0 -1 0 402)">
							<stop  offset="0" style="stop-color:#C0BFF6"/>
							<stop  offset="0.2938" style="stop-color:#C5C4F7"/>
							<stop  offset="0.6399" style="stop-color:#D3D2F9"/>
							<stop  offset="1" style="stop-color:#E9E9FD"/>
						</linearGradient>
						<path class="st9" d="M288.853,259.167l-32.575-13.236l25.706-11.19c1.152-0.665,1.277-1.671,0.279-2.247l-0.27-0.155
							c-0.998-0.576-2.74-0.504-3.891,0.162l-25.707,11.19l-16.6-15.155c-0.688-0.78-2.342-1.089-3.692-0.693l0,0
							c-1.351,0.397-1.887,1.352-1.2,2.132l16.599,15.154l-36.111,6.956c-1.497,0.137-2.519,0.948-2.282,1.813
							s1.643,1.454,3.141,1.317l36.111-6.956l-5.719,24.502c-0.237,0.864,0.785,1.676,2.282,1.813
							c1.497,0.137,2.904-0.453,3.141-1.317l5.719-24.502l32.577,13.237c1.351,0.397,3.004,0.088,3.692-0.693
							C290.741,260.519,290.204,259.565,288.853,259.167z M252.787,245.964l-0.607,0.688l-1.32-0.12l-0.209-0.762l1.191-0.35
							L252.787,245.964z"/>
					</g>
					<path class="st3" d="M251.663,247.991L251.663,247.991c-1.568,0-2.841-1.272-2.841-2.84v-32.888h5.681v32.888
						C254.505,246.719,253.233,247.991,251.663,247.991z"/>
				</g>
			</g>
			<path class="st10" d="M236.554,173.197l-0.014,0.004c-0.067-0.743-0.55-1.445-1.476-1.979l-0.596-0.344
				c-2.206-1.274-6.059-1.114-8.605,0.356L207.908,181.6c-1.351,0.781-2.056,1.772-2.098,2.723l-0.009,0.004v3.127l0.005,0.002
				c-0.001,0.81,0.483,1.584,1.484,2.161l0.595,0.344c2.206,1.274,6.059,1.114,8.605-0.356l17.955-10.366
				c1.309-0.756,2.013-1.709,2.094-2.632l0.012-0.005v-3.405H236.554z"/>
			<g>
				
					<linearGradient id="SVGID_9_" gradientUnits="userSpaceOnUse" x1="205.8026" y1="223.1047" x2="236.5554" y2="223.1047" gradientTransform="matrix(1 0 0 -1 0 402)">
					<stop  offset="0" style="stop-color:#E9E9FD"/>
					<stop  offset="0.3601" style="stop-color:#D3D2F9"/>
					<stop  offset="0.7062" style="stop-color:#C5C4F7"/>
					<stop  offset="1" style="stop-color:#C0BFF6"/>
				</linearGradient>
				<path class="st11" d="M207.887,186.913l-0.595-0.344c-2.206-1.274-1.93-3.498,0.618-4.968l17.955-10.366
					c2.547-1.47,6.4-1.63,8.605-0.356l0.596,0.344c2.206,1.274,1.929,3.498-0.618,4.968l-17.955,10.366
					C213.946,188.027,210.093,188.186,207.887,186.913z"/>
			</g>
			<g>
				<path class="st12" d="M245.901,201.379l-37.608,21.691c-1.863,1.076-3.373-0.066-3.373-2.551l0,0
					c0-2.485,1.511-5.371,3.373-6.446l43.081-24.851v1.7C251.374,194.953,248.924,199.634,245.901,201.379z"/>
				<g>
					
						<linearGradient id="SVGID_10_" gradientUnits="userSpaceOnUse" x1="272.8379" y1="273.6432" x2="243.6427" y2="198.5142" gradientTransform="matrix(1 0 0 -1 0 402)">
						<stop  offset="0.3548" style="stop-color:#BCBEFF"/>
						<stop  offset="0.4438" style="stop-color:#B5B8FC"/>
						<stop  offset="0.5698" style="stop-color:#A3A7F5"/>
						<stop  offset="0.6975" style="stop-color:#898FEB"/>
						<stop  offset="0.8593" style="stop-color:#6069DB"/>
						<stop  offset="0.8925" style="stop-color:#5761D7"/>
					</linearGradient>
					<path class="st13" d="M248.671,108.702l-0.001,0.002c-1.307-0.702-2.988-0.611-4.825,0.45l-1.123,0.649
						c-4.158,2.401-7.529,8.841-7.529,14.386v74.377l9.99-5.767v2.362l-11.984,9.765l-27.225,18.254l38.265,21.631l22.001-16.932
						l12.53-10.698l7.807-87.04L248.671,108.702z"/>
				</g>
			</g>
			<path class="st14" d="M220.641,231.469c0,0-1.017-2.694,0.994-4.705c2.01-2.01,12.589-6.463,13.355-6.941
				c0.766-0.479,4.568-3.279,4.568-3.279l1.16-2.596c0,0-21.478,2.093-21.765,2.428c-0.287,0.335-10.052,9.096-9.765,9.478
				c0.287,0.383,6.731,1.945,6.731,1.945l1.244,1.704L220.641,231.469z"/>
			<path class="st10" d="M281.939,130.683l-1.123,0.649c-4.158,2.4-7.529,8.841-7.529,14.386v74.367l-26.9,15.517
				c-1.863,1.076-3.373,3.962-3.373,6.446l0,0c0,2.485,1.511,3.627,3.373,2.551l37.608-21.691c3.022-1.745,5.473-6.426,5.473-10.457
				v-1.7v-74.377C289.469,130.83,286.097,128.281,281.939,130.683z"/>
			<g>
				<g>
					<path class="st15" d="M210.464,247.58c0,0-5.541,3.555-7.414,5.65c-1.874,2.095-5.585,6.383-4.058,8.426
						c1.527,2.043,6.683,3.185,12.225-1.918c5.542-5.103,3.968-5.407,8.687-7.936c4.718-2.529,6.02-5.282,5.451-6.856
						c-0.567-1.574-2.901-4.358-4.172-3.758C219.911,241.786,210.464,247.58,210.464,247.58z"/>
					<path class="st15" d="M237.411,262.511c0,0-1.989,4.377-3.015,5.829c-1.026,1.452-5.996,9.828-3.4,11.754
						c2.595,1.927,7.516,1.392,11.404-2.831c3.888-4.223,4.753-9.362,5.712-11.05c0.959-1.688,3.348-6.192,2.215-8.79
						c-1.133-2.598-1.385-3.046-1.385-3.046L237.411,262.511z"/>
					<path class="st3" d="M217.291,200.18c0,0-16.463,16.245-19.162,24.401c0,0-1.14,4.407,2.043,7.864
						c3.183,3.457,9.94,14.757,9.94,14.757s5.044,6.101,11.556,1.223c0,0,2.945-4.705,1.135-7.833s-6.626-13.121-6.626-13.121
						s10.558-7.265,15.768-9.099c5.21-1.835,7.992-3.253,7.992-3.253s-0.948,4.916-4.76,9.713
						c-3.811,4.797-10.194,12.503-8.07,17.867c2.124,5.364,3.356,7.024,5.354,10.111c1.998,3.087,3.886,9.527,5.589,10.197
						c1.703,0.669,9.575,1.442,10.852-3.684c1.277-5.126-2.686-15.09-4.47-18.46c0,0,21.293-24.566,23.32-27.266
						C269.779,210.896,223.881,196.013,217.291,200.18z"/>
					<path class="st15" d="M222.804,240.591c-1.81-3.128-6.626-13.121-6.626-13.121s10.558-7.265,15.768-9.099
						c5.211-1.835,7.992-3.253,7.992-3.253c1-1.379,4.234-6.663,5.68-10.844c-12.008-3.518-25.044-6.17-28.327-4.094
						c1.164,2.876,7.284,2.851,7.284,2.851s2.287,5.565,3.802,6.275c1.516,0.711,5.147-0.067,5.147-0.067s-0.587,0.916-3.174,2.784
						c-2.588,1.868-18.79,15.142-18.79,15.142s0.924,0.526,5.237,8.324s4.872,12.935,4.872,12.935S224.614,243.719,222.804,240.591z
						"/>
					<path class="st15" d="M259.2,208.799c-9.52-0.908-20.605-0.99-18.11,4.01c4.232,8.479,12.746,8.858,12.746,8.858
						c-0.055,3.115-13.118,18.159-13.118,18.159s0,0,3.044,5.92c3.044,5.92,2.662,16.698,2.662,16.698
						c1.174-0.64,2.106-1.63,2.478-3.122c1.277-5.126-2.686-15.09-4.47-18.46c0,0,21.293-24.566,23.32-27.266
						C268.353,212.796,264.745,210.926,259.2,208.799z"/>
					<path class="st16" d="M200.645,156.877l2.533-1.965c0,0,13.65-7.58,18.192-10.036c2.459-1.329,5.012-3.707,6.835-5.608
						c1.777-1.852,4.242-2.887,6.811-2.901l23.915-0.119c0,0,2.785,4.463,3.725,5.342c0.69,0.646,7.18,6.085,11.835,10.563
						c2.576,2.479,4.448,5.585,5.424,9.024c2.664,9.392,2.625,28.318,3.028,41.851c0,0-1.649,0.644-5.743,1.518
						c-4.068,0.869-3.566,0.313-3.566,0.313s-6.103,13.729-14.38,15.056s-19.431-2.545-21.42-15.543c0,0-16.139-2.418-20.516-4.215
						c-0.405-0.166-0.546-0.662-0.283-1.012c1.951-2.591,9.228-12.631,9.921-19.173c0.8-7.562,0.555-18.54-0.045-21.54
						c0,0-12.17,4.585-16.05,5.398c0,0-14.816,16.281-21.005,20.712c0,0,2.119-3.332-2.138-5.594L200.645,156.877z"/>
					<path class="st3" d="M277.198,204.547c0.621-0.133,1.179-0.259,1.691-0.38l-0.86-1.689l-22.452-2.376l-13.112,0.678
						l-4.509,4.285c0.254,1.391,0.613,2.677,1.067,3.855c0.023,0.003,5.575,0.802,8.152,0.251c2.579-0.552,22.56,2.386,22.6,2.392
						c2.262-3.249,3.666-6.279,3.839-6.661C273.597,205.011,273.84,205.264,277.198,204.547z"/>
					<path class="st17" d="M246.898,196.704c-0.025-0.083-0.095-0.141-0.182-0.143c-1.081-0.027-8.098-0.234-10.749-1.149
						c-2.877-0.993-5.925-0.81-6.08-0.644s-4.944,2.199-5.23,3.025c-0.254,0.733-0.714,3.275-0.078,4.213
						c0.635,0.939,0.935,1.567,0.935,1.567l0.499,0.053c0,0,0.645,1.268,1.008,1.717c0.16,0.197,0.285,0.413,0.392,0.644
						c0.303,0.654,0.834,1.732,1.055,1.755c0.318,0.034,1.801,0.328,2.178,0.231c0.308-0.079,0.585-1.021,0.458-1.435
						c-0.035-0.113,0.022-0.217,0.139-0.237c0.683-0.112,2.535-0.346,5.097-0.111c3.121,0.286,7.532-1.754,7.932-1.942
						c0.021-0.01,0.041-0.015,0.065-0.018l4.401-0.397c0.126-0.011,0.21-0.135,0.174-0.255L246.898,196.704z"/>
					<path class="st18" d="M241.599,150.33c0,0-3.745,13.803,0.214,27.989c0,0,14.408-26.878,15.971-31.24
						c1.563-4.362,2.13-7.459,0.67-9.025c-1.461-1.566-14.477,6.524-14.477,6.524L241.599,150.33z"/>
					<path class="st19" d="M245.31,171.976c0,0,2.744-8.399,2.266-11.111c-0.478-2.712-1.159-4.65-1.159-4.65l2.474-2.283
						l1.091,2.262c0,0,5.448-3.997,5.81-4.741c0,0-4.388,3.011-5.766,3.461c0,0-0.651-1.078-1.515-1.445
						c-0.864-0.367-3.01,2.572-3.01,2.572l-0.402,5.096l-2.153,11.886l0.748,1.766L245.31,171.976z"/>
					<path class="st3" d="M242.9,150.486c0,0-0.52,5.424-0.071,5.808c0.449,0.384,2.128,0.409,2.909-0.029
						c0.781-0.438,2.774-2.796,2.774-2.796S246.075,149.168,242.9,150.486z"/>
					<path class="st3" d="M245.84,155.297c0,0,1.467,3.765,0.06,8.969c-1.408,5.204-1.947,10.039-1.947,10.039l-2.14,4.013
						c0,0-2.67-7.854-1.793-15.742c0.394-3.543,3.095-6.68,3.095-6.68L245.84,155.297z"/>
					<path class="st17" d="M234.869,128.317c0,0-0.661,3.356-0.422,3.993c0.239,0.637,1.088,1.064,0.88,2.372
						c-0.207,1.309,0.549,5.22,0.938,6.523c0,0-0.285,1.392,0.105,1.824c0.39,0.431,0.897,0.416,1.262,1.074
						c0.367,0.658,0.49,4.044,1.862,5.175c1.372,1.132,3.159,1.366,4.08,1.12c0.921-0.247,1.867-0.949,1.867-0.949l2.066,0.861
						c0,0,10.714-3.034,10.38-10.564l-0.007-0.796c0,0,0.761-1.063,0.981-1.762s1.996-3.826,1.099-5.175
						c0,0,4.151-16.385-8.654-17.373C238.502,113.652,236.573,122.625,234.869,128.317z"/>
					<path class="st20" d="M257.887,139.747l-0.001-0.091c-0.533-0.319-1.055-0.521-1.471-0.448c-1.465,0.258-1.129-2.78-1.129-2.78
						s-0.272,0.551-1.02,4.435c-0.748,3.883-8.824,8.587-8.824,8.587l2.066,0.861C247.508,150.311,258.222,147.278,257.887,139.747z
						"/>
					<path class="st21" d="M234.926,121.204c-1.252,2.659-1.85,5.853,0.767,7.997c0,0,2.201,0.6,6.382-1.344
						c2.818-1.31,5.637-0.73,7.174-0.212c0.711,0.239,1.177,0.913,1.156,1.663l-0.062,2.332c-0.016,0.607,0.34,1.16,0.898,1.398
						l1.944,0.828l0.385,2.268c0.113,0.669,0.803,1.073,1.443,0.844l0.492-0.176c0,0,0.289-5.048,4.452-4.79
						c0,0,3.372-7.29-0.082-13.958c-3.455-6.667-12.922-6.192-14.941-5.436c-2.657,0.996-2.287,0.847-3.81,1.79
						C238.466,116.054,236.259,118.375,234.926,121.204z"/>
					<path class="st3" d="M268.999,172.616c0,0-1.94,14.294-2.736,18.338l-6.266,3.304l11.127-0.68L268.999,172.616z"/>
					<path class="st22" d="M259.959,132.013c0,0,1.14-2.469,1.414-5.847c-5.175,4.101-10.967,3.141-10.967,3.141l-0.062,2.332
						c-0.016,0.607,0.34,1.16,0.898,1.398l1.944,0.828l0.385,2.268c0.113,0.668,0.803,1.073,1.443,0.844l0.492-0.176
						C255.506,136.803,255.796,131.756,259.959,132.013z"/>
					<path class="st3" d="M262.73,144.57c0,0-3.317,11.39-4.008,13.585l-2.668-0.282l0.481,3.604l-14.371,18.944l15.957-18.318
						l-0.632-3.211l2.423,0.256L262.73,144.57z"/>
					<path class="st23" d="M248.621,206.477c0,0,33.706-1.098,34.566-1.71c0.86-0.613,1.013-9.284,0.933-14.309
						c-0.057-3.526-0.015-17.319-3.024-26.994c2.364,8.192,1.119,37.167,0.048,38.64c-1.074,1.477-33.134,2.325-33.134,2.325l0,0
						C248.355,205.633,248.621,206.477,248.621,206.477z"/>
					<path class="st17" d="M182.394,179.516c0,0-0.128,0.851-1.592,1.682c-1.464,0.831-5.217,2.682-5.823,3.215
						s-3.313,2.907-3.392,3.22c-0.079,0.313-0.892,3.003-0.886,3.164c0.006,0.162,0.265,1.405,0.265,1.405l-0.834,3.973
						c0,0-1.058,1.54,0.092,1.96c1.148,0.42,1.803-0.773,1.822-0.955c0,0,1.739-0.826,3.014-1.814
						c1.275-0.99,6.39-5.105,7.258-4.853s0.07,1.728-0.347,1.982c-0.417,0.254-3.129,2.904-1.994,4.745
						c1.136,1.841,1.877-1.04,2.627-1.626c0.751-0.586,2.371-2.892,3.365-3.177c0.994-0.285,2.801-3.994,3.038-5.651
						c0.237-1.657,1.42-2.725,1.844-3.261c0.424-0.536-0.914-4.654-0.914-4.654l-5.064-1.577l-1.775,1.153L182.394,179.516z"/>
				</g>
			</g>
			<g>
				<g>
					<defs>
						<path id="SVGID_11_" d="M259.404,216.492l-0.596-0.344c-2.206-1.274-1.929-3.498,0.618-4.968l17.955-10.366
							c2.546-1.47,6.4-1.63,8.605-0.356l0.596,0.344c2.206,1.274,1.929,3.498-0.618,4.968l-17.955,10.366
							C265.463,217.606,261.61,217.765,259.404,216.492z"/>
					</defs>
					<clipPath id="SVGID_12_">
						<use xlink:href="#SVGID_11_"  style="overflow:visible;"/>
					</clipPath>
					<path class="st24" d="M278.608,157.786c-1.06-1.673-1.546-0.438-2.968,0.942c-1.918,1.863-4.328,4.752-5.572,8.401
						c-2.263,6.644-1.451,23.248-0.693,25.623c0,0-21.106,3.456-22.567,3.393c-1.461-0.063,1.811,10.332,1.811,10.332
						s33.706-1.098,34.566-1.71c0.86-0.613,1.013-9.284,0.933-14.309C284.05,186.15,284.131,166.508,278.608,157.786z"/>
				</g>
				<g>
					<defs>
						<path id="SVGID_13_" d="M259.404,216.492l-0.596-0.344c-2.206-1.274-1.929-3.498,0.618-4.968l17.955-10.366
							c2.546-1.47,6.4-1.63,8.605-0.356l0.596,0.344c2.206,1.274,1.929,3.498-0.618,4.968l-17.955,10.366
							C265.463,217.606,261.61,217.765,259.404,216.492z"/>
					</defs>
					<clipPath id="SVGID_14_">
						<use xlink:href="#SVGID_13_"  style="overflow:visible;"/>
					</clipPath>
					<path class="st25" d="M248.621,206.477c0,0,33.706-1.098,34.566-1.71c0.86-0.613,1.013-9.284,0.933-14.309
						c-0.057-3.526-0.015-17.319-3.024-26.994c2.364,8.192,1.119,37.167,0.048,38.64c-1.074,1.477-33.134,2.325-33.134,2.325l0,0
						C248.355,205.633,248.621,206.477,248.621,206.477z"/>
				</g>
			</g>
			<path class="st10" d="M288.071,202.776l-0.013,0.004c-0.067-0.742-0.55-1.445-1.476-1.979l-0.596-0.344
				c-2.206-1.274-6.059-1.114-8.605,0.356l-17.955,10.366c-1.351,0.781-2.056,1.772-2.098,2.723l-0.009,0.004v3.127l0.005,0.002
				c-0.001,0.81,0.483,1.584,1.484,2.161l0.596,0.344c2.206,1.274,6.058,1.114,8.605-0.356l17.955-10.366
				c1.309-0.756,2.013-1.709,2.094-2.632l0.012-0.005V202.776z"/>
			<g>
				
					<linearGradient id="SVGID_15_" gradientUnits="userSpaceOnUse" x1="257.3188" y1="193.5254" x2="288.0713" y2="193.5254" gradientTransform="matrix(1 0 0 -1 0 402)">
					<stop  offset="0" style="stop-color:#E9E9FD"/>
					<stop  offset="0.3601" style="stop-color:#D3D2F9"/>
					<stop  offset="0.7062" style="stop-color:#C5C4F7"/>
					<stop  offset="1" style="stop-color:#C0BFF6"/>
				</linearGradient>
				<path class="st26" d="M259.404,216.492l-0.596-0.344c-2.206-1.274-1.929-3.498,0.618-4.968l17.955-10.366
					c2.546-1.47,6.4-1.63,8.605-0.356l0.596,0.344c2.206,1.274,1.929,3.498-0.618,4.968l-17.955,10.366
					C265.463,217.606,261.61,217.765,259.404,216.492z"/>
			</g>
			<g>
				
					<linearGradient id="SVGID_16_" gradientUnits="userSpaceOnUse" x1="97.9263" y1="186.3798" x2="307.4218" y2="186.3798" gradientTransform="matrix(1 0 0 -1 0 402)">
					<stop  offset="0" style="stop-color:#42E8E0"/>
					<stop  offset="0.1507" style="stop-color:#43E3E0"/>
					<stop  offset="0.3285" style="stop-color:#45D5DF"/>
					<stop  offset="0.5199" style="stop-color:#49BDDD"/>
					<stop  offset="0.7209" style="stop-color:#4E9CDB"/>
					<stop  offset="0.9274" style="stop-color:#5472D8"/>
					<stop  offset="1" style="stop-color:#5761D7"/>
				</linearGradient>
				<polygon class="st27" points="248.42,276.083 97.926,189.222 156.928,155.157 307.422,242.018 				"/>
				
					<linearGradient id="SVGID_17_" gradientUnits="userSpaceOnUse" x1="66.9025" y1="171.9776" x2="276.398" y2="171.9776" gradientTransform="matrix(1 0 0 -1 0 402)">
					<stop  offset="0.3548" style="stop-color:#BCBEFF"/>
					<stop  offset="0.4438" style="stop-color:#B5B8FC"/>
					<stop  offset="0.5698" style="stop-color:#A3A7F5"/>
					<stop  offset="0.6975" style="stop-color:#898FEB"/>
					<stop  offset="0.8593" style="stop-color:#6069DB"/>
					<stop  offset="0.8925" style="stop-color:#5761D7"/>
				</linearGradient>
				<polygon class="st28" points="97.926,183.962 97.926,189.222 248.42,276.083 307.422,242.018 307.422,236.757 248.42,270.823 
									"/>
				
					<linearGradient id="SVGID_18_" gradientUnits="userSpaceOnUse" x1="97.9263" y1="191.6401" x2="307.4218" y2="191.6401" gradientTransform="matrix(1 0 0 -1 0 402)">
					<stop  offset="0" style="stop-color:#E9E9FD"/>
					<stop  offset="0.3601" style="stop-color:#D3D2F9"/>
					<stop  offset="0.7062" style="stop-color:#C5C4F7"/>
					<stop  offset="1" style="stop-color:#C0BFF6"/>
				</linearGradient>
				<polygon class="st29" points="248.42,270.823 97.926,183.962 156.928,149.897 307.422,236.757 				"/>
				<polygon class="st30" points="248.42,270.285 98.392,183.693 97.926,183.962 248.42,270.823 307.422,236.757 306.957,236.489 
									"/>
			</g>
			<path class="st31" d="M230.508,207.352c0,0,4.222,1.505,7.448,0.969c3.226-0.538,18.753-0.841,18.753-0.841l-2.44-1.41
				l-5.444-3.791l-13.494,0.91l-5.205,1.866L230.508,207.352z"/>
			<path class="st17" d="M246.898,196.704c-0.025-0.083-0.095-0.141-0.182-0.143c-1.081-0.027-8.098-0.234-10.749-1.149
				c-2.877-0.993-5.925-0.81-6.08-0.644s-4.944,2.199-5.23,3.025c-0.254,0.733-0.714,3.275-0.078,4.213
				c0.635,0.939,0.935,1.567,0.935,1.567l0.499,0.053c0,0,0.645,1.268,1.008,1.717c0.16,0.197,0.285,0.413,0.392,0.644
				c0.303,0.654,0.834,1.732,1.055,1.755c0.318,0.034,1.801,0.328,2.178,0.231c0.308-0.079,0.585-1.021,0.458-1.435
				c-0.035-0.113,0.022-0.217,0.139-0.237c0.683-0.112,2.535-0.346,5.097-0.111c3.121,0.286,7.532-1.754,7.932-1.942
				c0.021-0.01,0.041-0.015,0.065-0.018l4.401-0.397c0.126-0.011,0.21-0.135,0.174-0.255L246.898,196.704z"/>
			<path class="st32" d="M278.608,157.786c-1.06-1.673-1.546-0.438-2.968,0.942c-1.918,1.863-4.328,4.752-5.572,8.401
				c-2.263,6.644-1.451,23.248-0.693,25.623c0,0-21.106,3.456-22.567,3.393c-1.461-0.063,1.811,10.332,1.811,10.332
				s33.706-1.098,34.566-1.71c0.86-0.613,1.013-9.284,0.933-14.309C284.05,186.15,284.131,166.508,278.608,157.786z"/>
			<path class="st3" d="M248.621,206.477c0,0,33.706-1.098,34.566-1.71c0.86-0.613,1.013-9.284,0.933-14.309
				c-0.057-3.526-0.015-17.319-3.024-26.994c2.364,8.192,1.119,37.167,0.048,38.64c-1.074,1.477-33.134,2.325-33.134,2.325l0,0
				C248.355,205.633,248.621,206.477,248.621,206.477z"/>
			<path class="st31" d="M188.205,189.222c0,0,12.05-9.417,13.772-10.327c1.724-0.911,2.449-1.602,2.449-1.602l-4.033-2.329
				l-6.822,2.805l-8.593,8.516l-13.229,9.377v2.178c0,0,10.914-4.684,12.134-5.484C185.103,191.555,188.205,189.222,188.205,189.222
				z"/>
			<path class="st33" d="M181.02,197.749c0,0,2.566-2.293,4.223-3.059c1.657-0.766,4.29-2.8,4.613-4.356
				c0.323-1.556,3.063-4.999,3.063-4.999l-4.392,2.534l-6.36,3.673l-10.587,6.14c0,0,0.647,0.742,1.986,0.287
				c1.341-0.455,3.853-2.058,5.026-2.202c1.173-0.143,3.112-0.503,3.112-0.503L181.02,197.749z"/>
			<path class="st17" d="M182.394,179.516c0,0-0.128,0.851-1.592,1.682c-1.464,0.831-5.217,2.682-5.823,3.215
				s-3.313,2.907-3.392,3.22c-0.079,0.313-0.892,3.003-0.886,3.164c0.006,0.162,0.265,1.405,0.265,1.405l-0.834,3.973
				c0,0-1.058,1.54,0.092,1.96c1.148,0.42,1.803-0.773,1.822-0.955c0,0,1.739-0.826,3.014-1.814c1.275-0.99,6.39-5.105,7.258-4.853
				s0.07,1.728-0.347,1.982c-0.417,0.254-3.129,2.904-1.994,4.745c1.136,1.841,1.877-1.04,2.627-1.626
				c0.751-0.586,2.371-2.892,3.365-3.177c0.994-0.285,2.801-3.994,3.038-5.651c0.237-1.657,1.42-2.725,1.844-3.261
				c0.424-0.536-0.914-4.654-0.914-4.654l-5.064-1.577l-1.775,1.153L182.394,179.516z"/>
			<g>
				<path class="st32" d="M228.11,151.719c0,0-0.185-7.55,1.101-13.342c-0.352,0.274-0.693,0.565-1.006,0.892
					c-1.824,1.901-4.375,4.278-6.835,5.608c-4.542,2.456-18.192,10.036-18.192,10.036l-2.533,1.965
					c-8.006,6.277-16.95,19.932-18.251,22.64c0.627-0.836,2.236-2.21,5.323-0.568c4.257,2.263,2.229,5.662,2.229,5.662
					c6.19-4.431,20.914-20.78,20.914-20.78c3.635-0.762,14.55-4.836,15.91-5.345C227.641,156.214,228.155,153.931,228.11,151.719z"
					/>
			</g>
		</g>
		<g>
			<g>
				<g>
					<g>
						<g>
							<g>
								
									<linearGradient id="SVGID_19_" gradientUnits="userSpaceOnUse" x1="-432.5443" y1="189.7974" x2="-345.1252" y2="189.7974" gradientTransform="matrix(-1 0 0 -1 -193.5958 402)">
									<stop  offset="0" style="stop-color:#5761D7"/>
									<stop  offset="0.1779" style="stop-color:#5C66D9"/>
									<stop  offset="0.3876" style="stop-color:#6A73DF"/>
									<stop  offset="0.6134" style="stop-color:#8289E8"/>
									<stop  offset="0.849" style="stop-color:#A3A7F5"/>
									<stop  offset="1" style="stop-color:#BCBEFF"/>
								</linearGradient>
								<path class="st34" d="M151.529,203.159l2.924,1.527l29.32-16.928c0.49-0.283,1.348-0.248,1.914,0.079l50.57,29.196
									c0.484-0.271,2.691-1.331,2.691-1.331l-1.07,2.788l-0.004-0.003c-0.044,0.124-0.139,0.24-0.3,0.332l-30.88,17.829
									c-0.49,0.283-1.348,0.248-1.914-0.079l-51.749-29.877c-0.233-0.134-0.375-0.297-0.435-0.461l-0.004,0.003L151.529,203.159z"
									/>
								
									<linearGradient id="SVGID_20_" gradientUnits="userSpaceOnUse" x1="-403.1702" y1="192.712" x2="-315.7072" y2="192.712" gradientTransform="matrix(-1 0 0 -1 -193.5958 402)">
									<stop  offset="0" style="stop-color:#C0BFF6"/>
									<stop  offset="0.2938" style="stop-color:#C5C4F7"/>
									<stop  offset="0.6399" style="stop-color:#D3D2F9"/>
									<stop  offset="1" style="stop-color:#E9E9FD"/>
								</linearGradient>
								<path class="st35" d="M151.981,203.639l53.035,30.62c0.581,0.336,1.458,0.372,1.962,0.081l31.647-18.272
									c0.503-0.29,0.44-0.797-0.141-1.133l-53.034-30.619c-0.581-0.336-1.459-0.372-1.962-0.081l-31.648,18.272
									C151.338,202.797,151.402,203.305,151.981,203.639z"/>
								<path class="st30" d="M151.981,203.334l53.035,30.62c0.581,0.335,1.458,0.372,1.962,0.081l31.647-18.272
									c0.165-0.095,0.263-0.214,0.308-0.342c0.079,0.238-0.015,0.48-0.308,0.648l-31.647,18.272
									c-0.503,0.29-1.381,0.253-1.962-0.081l-53.035-30.62c-0.39-0.226-0.541-0.527-0.448-0.791
									C151.591,203.022,151.738,203.194,151.981,203.334z"/>
								<g>
									<path class="st36" d="M220.783,220.222l-44.072-25.445c-0.293-0.17-0.656-0.17-0.949,0l-15.694,9.08
										c-0.226,0.131-0.226,0.456,0,0.586l44.051,25.433c0.293,0.17,0.655,0.17,0.948,0l15.716-9.069
										C221.009,220.678,221.009,220.353,220.783,220.222z"/>
									<path class="st37" d="M220.783,220.809l-0.158,0.091l-43.914-25.354c-0.293-0.17-0.656-0.17-0.949,0l-15.536,8.988
										l-0.158-0.091c-0.226-0.13-0.226-0.455,0-0.586l15.694-9.08c0.293-0.17,0.656-0.17,0.949,0l44.072,25.445
										C221.009,220.353,221.009,220.678,220.783,220.809z"/>
									<g>
										<polygon class="st3" points="174.578,197.078 215.173,220.516 217.185,219.712 176.28,196.095 										"/>
										<polygon class="st3" points="170.404,199.487 206.312,220.218 208.014,219.236 172.106,198.504 										"/>
										<polygon class="st3" points="167.686,201.056 209.964,225.465 211.666,224.482 169.388,200.074 										"/>
										<polygon class="st3" points="164.968,202.625 207.245,227.035 208.948,226.051 166.67,201.643 										"/>
										<polygon class="st3" points="162.25,204.194 204.528,228.604 206.23,227.621 163.952,203.212 										"/>
										<polygon class="st3" points="215.173,220.516 216.875,221.498 218.578,220.516 216.875,219.533 										"/>
										<polygon class="st3" points="204.247,219.027 212.702,223.907 214.404,222.925 205.888,218.008 										"/>
									</g>
								</g>
								<g>
									
										<linearGradient id="SVGID_21_" gradientUnits="userSpaceOnUse" x1="-408.8456" y1="199.4417" x2="-386.4579" y2="199.4417" gradientTransform="matrix(-1 0 0 -1 -193.5958 402)">
										<stop  offset="0" style="stop-color:#C0BFF6"/>
										<stop  offset="0.2938" style="stop-color:#C5C4F7"/>
										<stop  offset="0.6399" style="stop-color:#D3D2F9"/>
										<stop  offset="1" style="stop-color:#E9E9FD"/>
									</linearGradient>
									<path class="st38" d="M205.093,208.82l-11.883-6.861c-0.464-0.268-0.464-0.703,0-0.971l8.127-4.691
										c0.464-0.268,1.217-0.268,1.682,0l11.883,6.861c0.464,0.268,0.464,0.703,0,0.971l-8.127,4.691
										C206.311,209.088,205.558,209.088,205.093,208.82z"/>
									<path class="st37" d="M214.901,203.554l-11.883-6.861c-0.464-0.268-1.217-0.268-1.682,0l-8.127,4.691
										c-0.143,0.082-0.237,0.182-0.291,0.287c-0.123-0.235-0.029-0.498,0.291-0.684l8.127-4.691c0.464-0.269,1.217-0.268,1.682,0
										l11.883,6.861c0.321,0.185,0.415,0.45,0.291,0.685C215.138,203.736,215.045,203.637,214.901,203.554z"/>
								</g>
							</g>
						</g>
					</g>
				</g>
			</g>
			<g>
				
					<linearGradient id="SVGID_22_" gradientUnits="userSpaceOnUse" x1="-407.0956" y1="203.4754" x2="-345.1985" y2="203.4754" gradientTransform="matrix(-1 0 0 -1 -193.5958 402)">
					<stop  offset="0" style="stop-color:#C0BFF6"/>
					<stop  offset="0.2938" style="stop-color:#C5C4F7"/>
					<stop  offset="0.6399" style="stop-color:#D3D2F9"/>
					<stop  offset="1" style="stop-color:#E9E9FD"/>
				</linearGradient>
				<path class="st39" d="M151.614,202.373l6.705-39.775l-0.539-0.227l0.81-0.464l-0.001,0.005c0.158-0.105,0.379-0.098,0.624,0.043
					l53.579,30.935c0.44,0.254,0.773,0.905,0.696,1.361l-6.757,40.091c-0.035,0.209-0.139,0.347-0.282,0.408h0.001l-0.793,0.458
					l-0.136-0.74l0.045,0.013l-53.255-30.747C151.87,203.48,151.537,202.828,151.614,202.373z"/>
				
					<linearGradient id="SVGID_23_" gradientUnits="userSpaceOnUse" x1="-407.0932" y1="187.6036" x2="-396.466" y2="187.6036" gradientTransform="matrix(-1 0 0 -1 -193.5958 402)">
					<stop  offset="0" style="stop-color:#5761D7"/>
					<stop  offset="0.1779" style="stop-color:#5C66D9"/>
					<stop  offset="0.3876" style="stop-color:#6A73DF"/>
					<stop  offset="0.6134" style="stop-color:#8289E8"/>
					<stop  offset="0.849" style="stop-color:#A3A7F5"/>
					<stop  offset="1" style="stop-color:#BCBEFF"/>
				</linearGradient>
				<path class="st40" d="M212.493,193.977l0.88-0.39c0.099,0.226,0.147,0.463,0.113,0.663l-6.757,40.091
					c-0.035,0.209-0.139,0.347-0.282,0.408h0.001l-0.793,0.458l-0.136-0.74l0.045,0.013l-2.695-1.556L212.493,193.977z"/>
				<path class="st16" d="M151.469,204.216l53.579,30.934c0.414,0.239,0.768,0.101,0.84-0.327l6.757-40.091
					c0.077-0.455-0.255-1.107-0.696-1.361l-53.579-30.934c-0.414-0.239-0.768-0.101-0.84,0.327l-6.757,40.091
					C150.696,203.31,151.029,203.962,151.469,204.216z"/>
			</g>
		</g>
	</g>
	<g>
		<g class="st41">
			<polygon class="st0" points="146.48,279.435 139.333,275.309 140.891,274.409 148.039,278.535 			"/>
			<polygon class="st0" points="152.58,282.957 149.006,280.893 150.565,279.993 154.138,282.057 			"/>
			<polygon class="st0" points="144.935,282.762 141.89,281.004 143.448,280.104 146.493,281.863 			"/>
			<polygon class="st0" points="150.036,285.707 146.462,283.644 148.02,282.745 151.594,284.807 			"/>
			<polygon class="st0" points="152.279,291.222 138.236,283.114 139.795,282.214 153.838,290.322 			"/>
			<polygon class="st0" points="112.203,307.268 98.16,299.16 99.718,298.26 113.761,306.368 			"/>
			<polygon class="st0" points="117.604,310.386 114.03,308.323 115.589,307.423 119.162,309.486 			"/>
			<polygon class="st0" points="137.627,286.982 134.582,285.224 136.14,284.324 139.185,286.082 			"/>
			<polygon class="st0" points="142.727,289.927 139.154,287.863 140.712,286.963 144.286,289.027 			"/>
			<polygon class="st0" points="138.649,291.791 130.928,287.333 132.486,286.434 140.207,290.891 			"/>
			<polygon class="st0" points="143.816,294.775 140.243,292.711 141.801,291.811 145.375,293.875 			"/>
			<polygon class="st0" points="149.011,297.773 145.437,295.71 146.996,294.811 150.569,296.873 			"/>
			<polygon class="st0" points="157.394,302.613 150.632,298.709 152.19,297.809 158.952,301.714 			"/>
			<polygon class="st0" points="146.033,304.493 142.46,302.43 144.018,301.53 147.591,303.593 			"/>
			<polygon class="st0" points="154.416,309.333 147.654,305.428 149.213,304.529 155.975,308.433 			"/>
			<polygon class="st0" points="127.193,293.616 123.62,291.553 125.178,290.653 128.752,292.716 			"/>
			<polygon class="st0" points="132.388,296.615 128.815,294.551 130.373,293.652 133.946,295.715 			"/>
			<polygon class="st0" points="140.771,301.455 134.009,297.551 135.568,296.651 142.33,300.556 			"/>
			<polygon class="st0" points="154.761,305.313 151.188,303.249 152.746,302.349 156.319,304.413 			"/>
			<polygon class="st0" points="159.956,308.312 156.381,306.249 157.94,305.349 161.514,307.412 			"/>
			<polygon class="st0" points="168.339,313.151 161.576,309.248 163.134,308.348 169.897,312.252 			"/>
			<polygon class="st0" points="123.195,313.615 119.621,311.551 121.179,310.651 124.754,312.715 			"/>
			<polygon class="st0" points="131.578,318.454 124.816,314.55 126.374,313.651 133.137,317.554 			"/>
			<polygon class="st0" points="119.885,297.835 116.312,295.772 117.87,294.873 121.443,296.935 			"/>
			<polygon class="st0" points="128.268,302.675 121.506,298.771 123.065,297.871 129.827,301.776 			"/>
			<polygon class="st0" points="124.083,318.346 120.509,316.283 122.067,315.384 125.641,317.446 			"/>
			<polygon class="st0" points="132.466,323.186 125.704,319.282 127.262,318.382 134.024,322.286 			"/>
			<polygon class="st0" points="162.962,297.389 159.388,295.327 160.947,294.427 164.52,296.489 			"/>
			<polygon class="st0" points="157.559,294.27 153.985,292.207 155.544,291.308 159.117,293.37 			"/>
			<polygon class="st0" points="171.345,302.23 164.583,298.325 166.141,297.425 172.903,301.33 			"/>
			<polygon class="st0" points="130.498,291.305 127.273,289.443 128.832,288.543 132.056,290.405 			"/>
			<polygon class="st0" points="140.059,296.825 132.222,292.299 133.78,291.4 141.617,295.925 			"/>
			<polygon class="st0" points="149.619,302.344 141.783,297.82 143.341,296.92 151.178,301.444 			"/>
			<polygon class="st0" points="176.312,305.097 173.088,303.235 174.646,302.336 177.87,304.197 			"/>
			<polygon class="st0" points="185.873,310.617 178.035,306.092 179.594,305.193 187.431,309.717 			"/>
			<polygon class="st0" points="195.434,316.136 187.596,311.612 189.155,310.713 196.992,315.237 			"/>
			<polygon class="st0" points="127.872,298.227 120.035,293.703 121.593,292.803 129.431,297.327 			"/>
			<polygon class="st0" points="132.003,300.612 129.596,299.222 131.154,298.322 133.561,299.712 			"/>
			<polygon class="st0" points="136.143,303.002 133.736,301.612 135.295,300.713 137.701,302.102 			"/>
			<polygon class="st0" points="143.797,307.422 137.876,304.003 139.434,303.103 145.355,306.522 			"/>
			<polygon class="st0" points="145.406,308.351 139.485,304.932 141.043,304.032 146.965,307.451 			"/>
			<polygon class="st0" points="161.39,304.921 158.984,303.532 160.542,302.632 162.949,304.021 			"/>
			<polygon class="st0" points="169.045,309.34 163.123,305.922 164.682,305.022 170.603,308.44 			"/>
			<polygon class="st0" points="170.653,310.269 164.732,306.85 166.29,305.95 172.212,309.369 			"/>
			<polygon class="st0" points="111.227,315.144 103.507,310.686 105.065,309.786 112.786,314.244 			"/>
			<polygon class="st0" points="116.395,318.127 112.822,316.064 114.38,315.164 117.953,317.228 			"/>
			<polygon class="st0" points="121.59,321.126 118.016,319.063 119.575,318.163 123.148,320.226 			"/>
			<polygon class="st0" points="129.973,325.966 123.211,322.062 124.769,321.162 131.531,325.066 			"/>
			<polygon class="st0" points="135.336,329.062 131.762,326.999 133.321,326.099 136.894,328.162 			"/>
			<polygon class="st0" points="143.719,333.902 136.957,329.998 138.515,329.098 145.277,333.002 			"/>
			<polygon class="st0" points="111.993,324.024 108.419,321.961 109.978,321.062 113.551,323.124 			"/>
			<polygon class="st0" points="120.376,328.864 113.614,324.96 115.173,324.06 121.934,327.965 			"/>
			<polygon class="st0" points="93.329,313.248 89.754,311.184 91.313,310.285 94.887,312.348 			"/>
			<polygon class="st0" points="98.523,316.248 94.949,314.184 96.507,313.284 100.082,315.348 			"/>
			<polygon class="st0" points="106.905,321.087 100.144,317.184 101.702,316.284 108.464,320.187 			"/>
			<polygon class="st0" points="103.077,314.658 99.853,312.796 101.411,311.896 104.636,313.758 			"/>
			<polygon class="st0" points="112.638,320.177 104.802,315.652 106.36,314.753 114.197,319.278 			"/>
			<polygon class="st0" points="122.199,325.697 114.363,321.173 115.921,320.273 123.758,324.797 			"/>
			<polygon class="st0" points="87.686,314.21 79.849,309.685 81.408,308.785 89.244,313.31 			"/>
			<polygon class="st0" points="91.817,316.595 89.409,315.206 90.968,314.306 93.375,315.695 			"/>
			<polygon class="st0" points="95.957,318.986 93.55,317.595 95.108,316.695 97.515,318.086 			"/>
			<polygon class="st0" points="103.611,323.404 97.69,319.985 99.248,319.085 105.169,322.504 			"/>
			<polygon class="st0" points="105.22,324.333 99.299,320.914 100.857,320.015 106.779,323.434 			"/>
			<polygon class="st0" points="103.233,306.309 100.826,304.919 102.385,304.02 104.791,305.409 			"/>
			<polygon class="st0" points="110.887,310.728 104.966,307.31 106.525,306.41 112.446,309.828 			"/>
			<polygon class="st0" points="118.708,315.243 112.786,311.824 114.345,310.925 120.266,314.344 			"/>
			<polygon class="st0" points="142.833,337.611 139.26,335.548 140.818,334.648 144.392,336.711 			"/>
			<polygon class="st0" points="151.217,342.451 144.455,338.547 146.013,337.647 152.775,341.551 			"/>
			<polygon class="st0" points="129.639,329.992 123.718,326.574 125.276,325.675 131.198,329.093 			"/>
			<polygon class="st0" points="137.459,334.508 131.537,331.089 133.096,330.189 139.017,333.608 			"/>
			<polygon class="st0" points="108.923,295.725 106.516,294.336 108.074,293.436 110.481,294.825 			"/>
			<polygon class="st0" points="116.577,300.145 110.656,296.726 112.214,295.826 118.136,299.245 			"/>
			<polygon class="st0" points="124.397,304.659 118.475,301.24 120.034,300.341 125.955,303.76 			"/>
		</g>
		<path class="st0" d="M27.707,287.426c-0.956,0-1.869-0.194-2.552-0.587l-6.228-3.595c-0.698-0.404-1.082-0.97-1.082-1.598
			c0-0.741,0.542-1.479,1.486-2.023l18.527-10.698c1.723-0.995,4.345-1.1,5.844-0.234l6.228,3.596
			c0.697,0.403,1.081,0.969,1.081,1.597c0,0.741-0.541,1.479-1.485,2.024l-18.528,10.697
			C30.06,287.148,28.853,287.426,27.707,287.426z M41.152,268.528c-1.068,0-2.196,0.261-3.077,0.768l-18.527,10.698
			c-0.807,0.466-1.271,1.068-1.271,1.652c0,0.467,0.308,0.903,0.867,1.225l6.228,3.595c1.38,0.794,3.807,0.692,5.412-0.234
			l18.528-10.697c0.807-0.466,1.27-1.069,1.27-1.652c0-0.467-0.308-0.902-0.866-1.224l-6.228-3.596
			C42.865,268.704,42.028,268.528,41.152,268.528z"/>
		<path class="st0" d="M61.14,306.728c-0.957,0-1.869-0.194-2.552-0.587l-20.764-11.988c-0.698-0.404-1.082-0.97-1.082-1.598
			c0-0.741,0.542-1.479,1.485-2.023l18.528-10.698c1.724-0.994,4.344-1.1,5.844-0.234l20.764,11.989
			c0.697,0.403,1.081,0.969,1.081,1.597c0,0.741-0.541,1.479-1.485,2.024l-18.528,10.697
			C63.491,306.45,62.285,306.728,61.14,306.728z M60.047,279.438c-1.068,0-2.196,0.261-3.077,0.768l-18.528,10.698
			c-0.806,0.466-1.27,1.068-1.27,1.651c0,0.468,0.308,0.903,0.867,1.225l20.764,11.988c1.38,0.797,3.809,0.694,5.412-0.234
			l18.528-10.697c0.807-0.466,1.27-1.069,1.27-1.652c0-0.466-0.308-0.902-0.866-1.225l-20.764-11.988
			C61.76,279.614,60.924,279.438,60.047,279.438z"/>
		<path class="st0" d="M91.822,288.958c-1.004,0-1.963-0.202-2.679-0.616l-39.388-22.739c-0.73-0.421-1.133-1.014-1.133-1.671
			c0-0.776,0.567-1.549,1.557-2.12l38.537-22.249c1.807-1.045,4.56-1.155,6.136-0.245l39.389,22.741
			c0.73,0.421,1.133,1.014,1.133,1.67c0,0.776-0.568,1.549-1.558,2.12l-38.537,22.249C94.292,288.667,93.026,288.958,91.822,288.958
			z M89.358,287.97c1.455,0.837,4.015,0.73,5.706-0.245l38.537-22.249c0.853-0.493,1.343-1.13,1.343-1.747
			c0-0.495-0.325-0.957-0.917-1.298l-39.389-22.741c-1.455-0.84-4.014-0.729-5.706,0.245l-38.537,22.249
			c-0.853,0.493-1.342,1.13-1.342,1.747c0,0.496,0.325,0.958,0.917,1.299L89.358,287.97z"/>
	</g>
</g>
</svg>
