<?xml version="1.0" encoding="UTF-8"?>
<svg id="Layer_1" xmlns="http://www.w3.org/2000/svg" version="1.1" viewBox="0 0 252 75">
  <!-- Generator: Adobe Illustrator 29.1.0, SVG Export Plug-In . SVG Version: 2.1.0 Build 142)  -->
  <defs>
    <style>
      .st0 {
        fill: #fff;
      }

      .st1 {
        fill: #155e97;
      }
    </style>
  </defs>
  <g id="Layer_11">
    <g id="Group_3">
      <g id="Rounded_Rectangle_3">
        <path class="st0" d="M69,1.4H5.5C3.1,1.4,1.2,3.6,1.2,6.3v39.3c0,2.7,1.9,4.9,4.3,4.9h63.5c2.4,0,4.3-2.2,4.3-4.9V6.3c0-2.7-1.9-4.9-4.3-4.9Z"/>
      </g>
      <g id="Rectangle_5">
        <path class="st1" d="M53.6,28.8c0-.6,0-1.1,0-1.1v-14.8h-4.9v13.1h-16.4v-8.2l-11.5,10.7,11.5,10.7v-8.2h18c2,0,2.8-.8,3.1-1.6h0v-.5h.1Z"/>
      </g>
      <g id="Clik.ai">
        <g>
          <path class="st0" d="M81.3,25.4c0-12.7,10.7-23,23.5-23s10.8,1.9,14.8,5c1.5,1.3,1.8,3.5.6,5.1-1.3,1.6-3.6,1.9-5.1.7-2.8-2.3-6.3-3.5-10.3-3.5s-8.5,1.8-11.5,4.6c-2.9,2.9-4.7,6.8-4.7,11.1s1.8,8.3,4.7,11.1c3,2.8,7.1,4.6,11.5,4.6s7.4-1.2,10.3-3.5c1.5-1.1,3.8-.8,5.1.7,1.2,1.6.9,3.9-.6,5.1-4,3.1-9.2,5-14.8,5-12.8,0-23.4-10.3-23.5-23Z"/>
          <path class="st0" d="M132.2,3.7c2,0,3.6,1.6,3.6,3.5v37.7c0,1.9-1.6,3.5-3.6,3.5s-3.5-1.6-3.5-3.5V7.2c0-1.9,1.6-3.5,3.5-3.5Z"/>
          <path class="st0" d="M151.2,8.5c0,1.9-1.5,3.5-3.5,3.5s-3.5-1.6-3.5-3.5v-1.3c0-1.9,1.5-3.5,3.5-3.5s3.5,1.5,3.5,3.5v1.3ZM151.2,20.1v24.9c0,1.9-1.5,3.5-3.5,3.5s-3.5-1.5-3.5-3.5v-24.9c0-2,1.5-3.5,3.5-3.5s3.5,1.5,3.5,3.5Z"/>
          <path class="st0" d="M159,44.9V7.2c0-1.9,1.5-3.5,3.5-3.5s3.6,1.6,3.6,3.5v22.1l13.1-13.1c1.3-1.3,3.6-1.3,5,0,1.4,1.4,1.4,3.6,0,5l-9.6,9.6,9.9,11.8c1.2,1.5,1,3.8-.5,5-.6.6-1.5.8-2.2.8s-2-.4-2.7-1.3l-9.4-11.4-3.5,3.5v5.6c0,1.9-1.6,3.5-3.6,3.5s-3.5-1.6-3.5-3.5h-.1Z"/>
          <path class="st0" d="M197.3,39.4c2.6,0,4.8,2.2,4.8,4.8s-2.2,4.7-4.8,4.7-4.7-2.1-4.7-4.7,2.1-4.8,4.7-4.8Z"/>
          <path class="st0" d="M238.2,32.5v12.5c0,1.9-1.5,3.4-3.4,3.4s-2.9-1.2-3.3-2.8c-2.4,1.7-5.3,2.8-8.5,2.8s-8.1-1.8-10.9-4.7c-2.8-2.9-4.4-6.9-4.4-11.3s1.6-8.4,4.4-11.3c2.8-2.9,6.5-4.8,10.9-4.8s6.1,1.1,8.5,2.8c.4-1.6,1.7-2.8,3.3-2.8s3.4,1.5,3.4,3.5v12.6h0ZM231.4,32.5c0-2.7-1-5-2.5-6.6-1.5-1.7-3.7-2.6-6-2.6s-4.5.9-6,2.6c-1.5,1.6-2.4,3.9-2.4,6.6s.9,4.9,2.4,6.6c1.5,1.6,3.6,2.5,6,2.5s4.4-.9,6-2.5c1.5-1.7,2.5-4,2.5-6.6Z"/>
          <path class="st0" d="M251.3,8.5c0,1.9-1.5,3.5-3.5,3.5s-3.5-1.6-3.5-3.5v-1.3c0-1.9,1.5-3.5,3.5-3.5s3.5,1.5,3.5,3.5v1.3ZM251.3,20.1v24.9c0,1.9-1.5,3.5-3.5,3.5s-3.5-1.5-3.5-3.5v-24.9c0-2,1.5-3.5,3.5-3.5s3.5,1.5,3.5,3.5Z"/>
        </g>
      </g>
      <g id="Your_CRE_Analyst_on_Cloud">
        <g>
          <path class="st0" d="M8.7,69.6h-1.9v-5.6l-5.3-8.4h2.2l4,6.7,4-6.7h2.2l-5.3,8.4v5.6h.1Z"/>
          <path class="st0" d="M13,64.5c0-1.5.4-2.8,1.3-3.8.8-1,2-1.6,3.5-1.6s2.7.5,3.5,1.6c.8,1,1.3,2.3,1.3,3.8s-.4,2.8-1.2,3.8c-.8,1.1-2,1.6-3.5,1.6s-2.6-.5-3.4-1.5c-.9-1-1.3-2.3-1.3-3.9h-.2ZM14.7,64.5c0,1.1.3,2.1.8,2.8.5.7,1.2,1.1,2.2,1.1s1.7-.4,2.2-1.2c.5-.8.8-1.7.8-2.8s-.3-2-.8-2.8-1.3-1.1-2.2-1.1-1.6.4-2.2,1.1c-.5.7-.8,1.6-.8,2.8h0Z"/>
          <path class="st0" d="M25,59.4h1.7v6.8c0,.8.2,1.3.5,1.7.3.4.8.6,1.5.6s1.6-.3,2.1-.9.7-1.4.7-2.5v-5.6h1.7v10.2h-1.6v-1.5h0c-.6,1.2-1.7,1.8-3.2,1.8s-1.8-.3-2.4-.8-.9-1.3-.9-2.4v-7.3h-.1Z"/>
          <path class="st0" d="M38.2,69.6h-1.7v-10.2h1.6v1.7h0c.7-1.3,1.7-2,2.9-2s.3,0,.4,0v1.8h-.6c-.8,0-1.4.3-1.9.8s-.7,1.2-.7,1.9v5.9h0Z"/>
          <path class="st0" d="M59.1,59.8c-.2-1-.7-1.7-1.3-2.2-.7-.5-1.5-.7-2.6-.7s-2.5.5-3.3,1.5-1.3,2.4-1.3,4.1.4,3.4,1.2,4.4,1.9,1.4,3.5,1.4,1.8-.3,2.6-1c.7-.7,1.2-1.6,1.4-2.9h1.8c-.2,1.8-.9,3.2-2.1,4.1-1.1.9-2.5,1.4-4.1,1.4s-3.4-.7-4.6-2c-1.1-1.3-1.7-3.1-1.7-5.5s.6-4,1.8-5.3,2.8-2,4.7-2,2.9.4,4,1.3c1,.8,1.6,2,1.8,3.3h-1.8Z"/>
          <path class="st0" d="M66,69.6h-1.9v-14h6.5c1.5,0,2.6.3,3.4,1,.8.6,1.2,1.6,1.2,2.8s-.2,1.5-.5,2-.8,1-1.5,1.3c.6.2,1,.5,1.2.9.3.4.4,1,.4,1.8v2.6c0,.4.2.7.3.9,0,.2.3.3.5.4v.3h-2.3c0-.3-.2-.9-.3-1.6v-2.8c0-.3-.2-.6-.3-.8-.2-.2-.4-.4-.8-.6s-.8-.2-1.3-.2h-4.6v6h0ZM66,62h4.4c1,0,1.7-.2,2.2-.6.4-.4.7-1,.7-1.8s-.2-1.3-.6-1.7-1-.6-2-.6h-4.7v4.8h0Z"/>
          <path class="st0" d="M89.1,69.6h-10.4v-14h10.2v1.7h-8.3v4.3h7.7v1.7h-7.7v4.7h8.5v1.7h0Z"/>
          <path class="st0" d="M99.7,65.5l-1.5,4.1h-1.9l5.3-14h2.1l5.1,14h-2.1l-1.4-4.1h-5.6ZM104.6,63.8l-2.1-6.2h0l-2.3,6.2h4.4Z"/>
          <path class="st0" d="M119.3,69.6h-1.7v-6.3c0-1-.2-1.7-.5-2.1-.3-.4-.9-.6-1.7-.6s-1.4.3-1.9.9c-.5.6-.8,1.4-.8,2.5v5.6h-1.7v-10.2h1.6v1.4h0c.8-1.2,1.8-1.7,3.1-1.7s2,.3,2.7.9c.6.6.9,1.5.9,2.6v7h0Z"/>
          <path class="st0" d="M122.4,62.5c0-1.2.4-2,1.1-2.6s1.7-.8,3.1-.8,2,.2,2.7.7,1.1,1.2,1.1,2.1v5.9c0,.4.2.6.5.6h.6v1.2c-.3,0-.6.2-1,.2-.6,0-1,0-1.3-.4s-.4-.6-.4-1.2c-1,1.1-2.2,1.7-3.7,1.7s-1.7-.3-2.3-.8c-.6-.5-.9-1.3-.9-2.1s.3-1.6.8-2.2,1.2-.9,2.2-1l3-.4c.5,0,.8-.5.8-1.2s-.2-.9-.6-1.2c-.4-.3-1-.4-1.8-.4s-1.3.2-1.7.5c-.4.3-.6.8-.7,1.5h-1.6,0ZM128.7,64.4c-.1,0-.4.2-.7.3-.4,0-1.1.2-2.1.3-.8,0-1.3.3-1.7.6-.4.3-.5.6-.5,1.1s0,1,.4,1.3.8.5,1.4.5,1.5-.2,2.2-.7c.6-.5,1-1,1-1.7v-1.7h0Z"/>
          <path class="st0" d="M135.6,69.6h-1.7v-14h1.7v14Z"/>
          <path class="st0" d="M145.2,59.4h1.9l-3.7,10c0,.2-.1.3-.2.5-.6,1.5-1,2.5-1.4,3s-1,.8-1.9.8-.9,0-1.2-.2v-1.6c.3,0,.7.2,1.1.2s.7,0,.9-.4.5-.9.9-1.9l-3.8-10.5h1.9l2.7,8.3h0l2.7-8.3h.1Z"/>
          <path class="st0" d="M154.7,62.3c0-.6-.2-1-.7-1.3-.4-.3-1-.4-1.8-.4s-1,0-1.4.4-.6.6-.6,1.1.1.6.4.8c.2.2.7.4,1.5.6l1.7.4c1,.3,1.8.6,2.2,1,.4.4.7,1,.7,1.7s-.4,1.8-1.1,2.4c-.7.6-1.7.9-2.9.9s-2.5-.3-3.2-.9-1.1-1.5-1.1-2.7h1.7c0,.7.3,1.2.7,1.6.4.3,1.1.5,2,.5s1.3,0,1.7-.4.6-.7.6-1.2-.1-.7-.4-.9c-.3-.2-.8-.4-1.6-.6l-2-.5c-.8-.2-1.4-.5-1.8-.9-.4-.4-.6-.9-.6-1.6,0-1,.4-1.8,1.1-2.4.7-.6,1.7-.9,2.8-.9s2.2.3,2.8.9c.7.6,1,1.4,1,2.3h-1.7,0Z"/>
          <path class="st0" d="M161.5,60.8v6.6c0,.3,0,.5.2.6s.4.2.8.2h.7v1.3c-.6,0-1.1,0-1.3,0-.7,0-1.2-.2-1.6-.5-.3-.3-.5-.9-.5-1.7v-6.7h-1.4v-1.4h1.4v-2.9h1.7v2.9h1.6v1.4h-1.6,0Z"/>
          <path class="st0" d="M170.4,64.5c0-1.5.4-2.8,1.3-3.8.8-1,2-1.6,3.5-1.6s2.7.5,3.5,1.6c.8,1,1.3,2.3,1.3,3.8s-.4,2.8-1.2,3.8c-.8,1.1-2,1.6-3.5,1.6s-2.6-.5-3.4-1.5c-.9-1-1.3-2.3-1.3-3.9h-.2ZM172.2,64.5c0,1.1.3,2.1.8,2.8.5.7,1.2,1.1,2.2,1.1s1.7-.4,2.2-1.2c.5-.8.8-1.7.8-2.8s-.3-2-.8-2.8-1.3-1.1-2.2-1.1-1.6.4-2.2,1.1c-.5.7-.8,1.6-.8,2.8h0Z"/>
          <path class="st0" d="M190.9,69.6h-1.7v-6.3c0-1-.2-1.7-.5-2.1s-.9-.6-1.7-.6-1.4.3-1.9.9c-.5.6-.8,1.4-.8,2.5v5.6h-1.7v-10.2h1.6v1.4h0c.8-1.2,1.8-1.7,3.1-1.7s2,.3,2.7.9c.6.6.9,1.5.9,2.6v7h0Z"/>
          <path class="st0" d="M209.5,59.8c-.2-1-.6-1.7-1.3-2.2s-1.5-.7-2.6-.7-2.5.5-3.3,1.5-1.3,2.4-1.3,4.1.4,3.4,1.2,4.4,1.9,1.4,3.5,1.4,1.8-.3,2.6-1c.7-.7,1.2-1.6,1.4-2.9h1.8c-.2,1.8-.9,3.2-2.1,4.1-1.1.9-2.5,1.4-4.1,1.4s-3.4-.7-4.6-2c-1.1-1.3-1.7-3.1-1.7-5.5s.6-4,1.8-5.3,2.8-2,4.7-2,2.9.4,4,1.3c1,.8,1.6,2,1.8,3.3h-1.8,0Z"/>
          <path class="st0" d="M216,69.6h-1.7v-14h1.7v14Z"/>
          <path class="st0" d="M218.7,64.5c0-1.5.4-2.8,1.3-3.8.8-1,2-1.6,3.5-1.6s2.7.5,3.5,1.6c.8,1,1.3,2.3,1.3,3.8s-.4,2.8-1.3,3.8c-.8,1.1-2,1.6-3.5,1.6s-2.6-.5-3.4-1.5c-.9-1-1.3-2.3-1.3-3.9h-.1ZM220.5,64.5c0,1.1.3,2.1.8,2.8s1.2,1.1,2.2,1.1,1.7-.4,2.2-1.2c.5-.8.8-1.7.8-2.8s-.3-2-.8-2.8-1.3-1.1-2.2-1.1-1.6.4-2.2,1.1-.8,1.6-.8,2.8h0Z"/>
          <path class="st0" d="M230.8,59.4h1.7v6.8c0,.8.2,1.3.5,1.7.3.4.8.6,1.5.6s1.6-.3,2.1-.9.7-1.4.7-2.5v-5.6h1.7v10.2h-1.6v-1.5h0c-.6,1.2-1.7,1.8-3.2,1.8s-1.8-.3-2.4-.8c-.6-.5-.9-1.3-.9-2.4v-7.3h-.1Z"/>
          <path class="st0" d="M250.8,69.6h-1.6v-1.4h0c-.6,1.1-1.6,1.7-2.9,1.7s-2.5-.5-3.3-1.6-1.2-2.4-1.2-4.1.4-2.7,1.2-3.7,1.8-1.4,3.1-1.4,2.3.6,3.1,1.7h0v-5.2h1.7v14h-.1ZM243.5,64.4c0,1.3.3,2.2.8,2.9s1.2,1,2,1,1.5-.3,2-.9.8-1.4.8-2.6-.2-2.5-.7-3.2-1.1-1.1-2.1-1.1-1.6.3-2.1.9c-.5.6-.7,1.6-.7,3Z"/>
        </g>
      </g>
    </g>
  </g>
</svg>