<svg xmlns="http://www.w3.org/2000/svg" viewBox="0 0 700 273"><defs><style>.cls-1,.cls-12,.cls-20{fill:none;}.cls-1{stroke:#ccd5e2;stroke-width:2px;}.cls-1,.cls-11,.cls-12{stroke-miterlimit:10;}.cls-2{fill:#95c8ec;}.cls-3{fill:#b6e0f4;}.cls-4{fill:#e4f2fb;}.cls-5{fill:#3f535c;}.cls-11,.cls-6{fill:#fff;}.cls-7{fill:#00a1e0;}.cls-8{fill:#ccd5e2;}.cls-9{fill:#f9b777;}.cls-10{fill:#95aec5;}.cls-11{stroke:#ededed;stroke-width:0.34px;}.cls-12{stroke:#1a82d7;stroke-width:1.38px;}.cls-13{fill:#81c784;}.cls-14{fill:#546e7a;}.cls-15{fill:#73c073;}.cls-16{fill:#f26522;}.cls-17{fill:#fc6142;}.cls-18{fill:#fcd156;}.cls-19{fill:#71be71;}.cls-20{stroke:#fff;stroke-linecap:round;stroke-linejoin:round;stroke-width:2.4px;}.cls-21{fill:#0071bc;}</style></defs><title>salesforce-customization</title><g id="Layer_2" data-name="Layer 2"><polyline id="_Path_" data-name="&lt;Path&gt;" class="cls-1" points="555.5 204.5 619.76 204.5 619.76 130.5 563.83 130.5 563.83 52.5 485.21 52.5"/><path id="_Path_2" data-name="&lt;Path&gt;" class="cls-2" d="M455.29,54.19h3.31V55a2.29,2.29,0,0,0,2.28,2.28h20.89A2.29,2.29,0,0,0,484.06,55v-.8h3.31V50.08h-3.31v-.8A2.29,2.29,0,0,0,481.77,47H460.89a2.29,2.29,0,0,0-2.28,2.28v.8h-3.31Z"/><path id="_Path_3" data-name="&lt;Path&gt;" class="cls-2" d="M539.29,207.19h3.31v.8a2.29,2.29,0,0,0,2.28,2.28h20.89a2.29,2.29,0,0,0,2.28-2.28v-.8h3.31v-4.11h-3.31v-.8a2.29,2.29,0,0,0-2.28-2.28H544.89a2.29,2.29,0,0,0-2.28,2.28v.8h-3.31Z"/><polygon class="cls-3" points="306.55 214.18 298.13 257.19 375.07 257.19 366.65 214.18 306.55 214.18"/><polygon class="cls-2" points="369.61 229.07 366.69 214.18 306.59 214.18 303.67 229.07 369.61 229.07"/><rect class="cls-4" x="199.98" y="27.55" width="274.32" height="196.56" rx="7.91" ry="7.91"/><path class="cls-5" d="M465.72,9H207.49c-4.37,0-7.5,3.54-7.5,7.91V189.36H474.31V16.91C474.31,12.54,470.09,9,465.72,9Z"/><path class="cls-4" d="M291.14,253.88h91.44a5.85,5.85,0,0,1,5.85,5.85v.77a0,0,0,0,1,0,0H285.86a0,0,0,0,1,0,0v-1.34A5.28,5.28,0,0,1,291.14,253.88Z"/><rect class="cls-6" x="213.11" y="40.66" width="248.06" height="135.84"/><rect class="cls-7" x="213.11" y="22.6" width="248.06" height="18.21"/><rect class="cls-8" x="213.11" y="62.2" width="248.05" height="19.67"/><rect class="cls-9" x="223.59" y="67.87" width="9.17" height="9.17"/><rect class="cls-10" x="238.53" y="67.87" width="12.44" height="1.96"/><rect class="cls-10" x="236.27" y="87.08" width="14.32" height="1.97"/><rect class="cls-10" x="236.27" y="91.69" width="14.32" height="1.97"/><rect class="cls-10" x="273.21" y="87.08" width="14.32" height="1.97"/><rect class="cls-10" x="273.21" y="91.69" width="14.32" height="1.97"/><rect class="cls-10" x="310.14" y="87.08" width="14.32" height="1.97"/><rect class="cls-10" x="310.14" y="91.69" width="14.32" height="1.97"/><rect class="cls-10" x="347.08" y="87.08" width="24.12" height="1.97"/><rect class="cls-10" x="347.08" y="91.69" width="24.12" height="1.97"/><rect class="cls-10" x="238.6" y="72.48" width="64.17" height="4.61"/><rect class="cls-11" x="307.38" y="72.48" width="11.85" height="4.61"/><rect class="cls-11" x="426.92" y="69.23" width="14.48" height="6.79"/><rect class="cls-11" x="412.44" y="69.23" width="14.48" height="6.79"/><rect class="cls-10" x="227.17" y="110.96" width="128.83" height="1.38"/><rect class="cls-10" x="227.17" y="121.46" width="128.83" height="1.38"/><rect class="cls-10" x="227.17" y="131.73" width="128.83" height="1.38"/><rect class="cls-4" x="367.98" y="110.52" width="83.05" height="65.72"/><line class="cls-12" x1="393.73" y1="135.17" x2="422.21" y2="135.17"/><rect class="cls-10" x="389.88" y="122.02" width="32.92" height="3.21"/><rect class="cls-10" x="393.73" y="140.28" width="49.1" height="1.38"/><rect class="cls-10" x="393.73" y="146.08" width="49.1" height="1.38"/><line class="cls-12" x1="393.73" y1="157.15" x2="422.21" y2="157.15"/><rect class="cls-10" x="393.73" y="162.26" width="49.1" height="1.38"/><rect class="cls-10" x="393.73" y="168.06" width="49.1" height="1.38"/><rect class="cls-10" x="213.12" y="99.47" width="248.05" height="1.38"/><path class="cls-7" d="M233.81,47.55a3.82,3.82,0,0,0-1.56.33,3.17,3.17,0,0,0-2.76-1.64,3.14,3.14,0,0,0-2.27,1,3.48,3.48,0,0,0-6,3.49,3,3,0,0,0,1.49,5.64,3,3,0,0,0,.61-.06,3.22,3.22,0,0,0,6,.15,2.82,2.82,0,0,0,3.7-1.16,3.83,3.83,0,0,0,.76.08,3.9,3.9,0,0,0,0-7.79Z"/><rect class="cls-2" x="375.32" y="119.18" width="8.34" height="8.34" rx="1.41" ry="1.41"/><rect class="cls-2" x="375.32" y="135.22" width="11.55" height="11.55" rx="1.41" ry="1.41"/><rect class="cls-2" x="375.32" y="157.04" width="11.55" height="11.55" rx="1.41" ry="1.41"/><path class="cls-7" d="M243.69,55.51l.71-.91a4,4,0,0,0,1.14.6,4.23,4.23,0,0,0,1.31.19,2.35,2.35,0,0,0,1.43-.4,1.36,1.36,0,0,0,.53-1.16,1.43,1.43,0,0,0-.26-.89,1.77,1.77,0,0,0-.73-.55,8.37,8.37,0,0,0-1.25-.4,4.55,4.55,0,0,1-1.94-1,2.19,2.19,0,0,1-.66-1.68,2.27,2.27,0,0,1,.43-1.39,2.64,2.64,0,0,1,1.16-.88,4.29,4.29,0,0,1,1.64-.3,4.86,4.86,0,0,1,2.93.91l-.65,1a4.87,4.87,0,0,0-1.1-.52,3.94,3.94,0,0,0-1.18-.17,2.28,2.28,0,0,0-1.29.33,1.23,1.23,0,0,0,0,2,5.08,5.08,0,0,0,1.56.61,5.14,5.14,0,0,1,2.11,1,2.41,2.41,0,0,1,.73,1.9,2.58,2.58,0,0,1-.46,1.56,2.81,2.81,0,0,1-1.25,1,4.64,4.64,0,0,1-1.75.32,5.14,5.14,0,0,1-1.72-.28A4.63,4.63,0,0,1,243.69,55.51Z"/><path class="cls-7" d="M251.34,54.48a1.92,1.92,0,0,1,1-1.84,6,6,0,0,1,2.8-.52h.67v-.36q0-1.29-1.53-1.29a4,4,0,0,0-2,.54l-.48-.92a4.73,4.73,0,0,1,1.21-.52,5,5,0,0,1,1.34-.19,3,3,0,0,1,2.17.68,2.83,2.83,0,0,1,.68,2.08v2.68a13.85,13.85,0,0,0,.11,1.53H256a5.06,5.06,0,0,1-.09-.81h0a2.52,2.52,0,0,1-.92.75,3.34,3.34,0,0,1-1.39.24,2.31,2.31,0,0,1-1.59-.53A1.94,1.94,0,0,1,251.34,54.48Zm4.43-.69v-.7h-.54a4.36,4.36,0,0,0-1.89.3,1.06,1.06,0,0,0-.57,1,1,1,0,0,0,.3.78,1.19,1.19,0,0,0,.83.28,1.94,1.94,0,0,0,1-.24,1.73,1.73,0,0,0,.65-.63A1.55,1.55,0,0,0,255.77,53.8Z"/><path class="cls-7" d="M259.25,47h1.39v9.35h-1.39Z"/><path class="cls-7" d="M268.65,53.48h-4.89a2.22,2.22,0,0,0,.61,1.45,2,2,0,0,0,1.45.52,3.19,3.19,0,0,0,1.05-.16,4.72,4.72,0,0,0,1-.48l.61.89a4.21,4.21,0,0,1-1.24.65,4.79,4.79,0,0,1-1.47.21,3.51,3.51,0,0,1-1.82-.45,2.91,2.91,0,0,1-1.16-1.26,4.24,4.24,0,0,1-.4-1.88,3.82,3.82,0,0,1,.85-2.59,3,3,0,0,1,2.39-1,2.8,2.8,0,0,1,2.3,1,3.91,3.91,0,0,1,.79,2.56A3.7,3.7,0,0,1,268.65,53.48Zm-1.32-1.07a2.31,2.31,0,0,0-.47-1.42,1.54,1.54,0,0,0-1.27-.55,1.62,1.62,0,0,0-1.31.56,2.36,2.36,0,0,0-.52,1.41Z"/><path class="cls-7" d="M274.67,50.12l-.59.86a3,3,0,0,0-1.65-.52,1.65,1.65,0,0,0-.9.21.67.67,0,0,0-.33.59.82.82,0,0,0,.14.5,1.07,1.07,0,0,0,.46.32,7.35,7.35,0,0,0,1,.29,3.27,3.27,0,0,1,1.52.74,1.71,1.71,0,0,1,.5,1.28,1.89,1.89,0,0,1-.37,1.18,2.24,2.24,0,0,1-1,.73,3.65,3.65,0,0,1-1.35.24,3.77,3.77,0,0,1-2.47-.78l.63-.87a3.31,3.31,0,0,0,.85.43,3,3,0,0,0,.94.14,1.64,1.64,0,0,0,1-.25.85.85,0,0,0,.35-.74.82.82,0,0,0-.13-.5,1.05,1.05,0,0,0-.45-.31,7.14,7.14,0,0,0-1-.29,3.38,3.38,0,0,1-1.51-.73,1.73,1.73,0,0,1-.48-1.31,1.69,1.69,0,0,1,.71-1.42,3,3,0,0,1,1.87-.53A3.62,3.62,0,0,1,274.67,50.12Z"/><path class="cls-7" d="M280.27,47,280,48a3.07,3.07,0,0,0-.83-.09Q278,48,278,49.18v.4h1.66v1.06H278v5.73H276.6V50.64h-1.15v-.9l1.15-.16v-.45a2.29,2.29,0,0,1,.59-1.68,2.48,2.48,0,0,1,1.81-.61A4.06,4.06,0,0,1,280.27,47Z"/><path class="cls-7" d="M287.35,52.95a4.08,4.08,0,0,1-.42,1.88,3,3,0,0,1-1.2,1.27,3.66,3.66,0,0,1-1.87.46,3.56,3.56,0,0,1-1.85-.46,3.09,3.09,0,0,1-1.2-1.27,4.44,4.44,0,0,1,0-3.74A2.94,2.94,0,0,1,282,49.84a3.72,3.72,0,0,1,1.86-.44,3.78,3.78,0,0,1,1.88.44,2.93,2.93,0,0,1,1.2,1.24A4.05,4.05,0,0,1,287.35,52.95Zm-5.51,0a3,3,0,0,0,.5,1.82,1.76,1.76,0,0,0,1.53.68,1.81,1.81,0,0,0,1.56-.68,3,3,0,0,0,.5-1.82,2.91,2.91,0,0,0-.5-1.79,1.83,1.83,0,0,0-1.56-.67,1.77,1.77,0,0,0-1.53.67A3,3,0,0,0,281.84,52.95Z"/><path class="cls-7" d="M289,51.11a13.08,13.08,0,0,0-.09-1.53h1.32a7.47,7.47,0,0,1,.11.94h0a2.08,2.08,0,0,1,.79-.83,2.52,2.52,0,0,1,1.29-.29l.4,0-.07,1.2a2.39,2.39,0,0,0-.46,0,1.73,1.73,0,0,0-1.41.61,2.37,2.37,0,0,0-.5,1.56v3.61H289Z"/><path class="cls-7" d="M296.81,49.4a4,4,0,0,1,1.22.19,3.53,3.53,0,0,1,1.06.54l-.54,1a2.91,2.91,0,0,0-1.72-.54,1.82,1.82,0,0,0-1.53.65,2.79,2.79,0,0,0-.51,1.77,2.83,2.83,0,0,0,.51,1.76,1.77,1.77,0,0,0,1.5.67,3.29,3.29,0,0,0,1.76-.55l.5,1a4,4,0,0,1-2.36.74,3.24,3.24,0,0,1-1.94-.53,2.93,2.93,0,0,1-1.05-1.35,4.75,4.75,0,0,1-.31-1.71,4.09,4.09,0,0,1,.41-1.88A2.94,2.94,0,0,1,295,49.84,3.62,3.62,0,0,1,296.81,49.4Z"/><path class="cls-7" d="M306.18,53.48h-4.89a2.22,2.22,0,0,0,.61,1.45,2,2,0,0,0,1.45.52,3.19,3.19,0,0,0,1.05-.16,4.72,4.72,0,0,0,1-.48l.61.89a4.21,4.21,0,0,1-1.24.65,4.79,4.79,0,0,1-1.47.21,3.51,3.51,0,0,1-1.82-.45,2.91,2.91,0,0,1-1.16-1.26,4.24,4.24,0,0,1-.4-1.88,3.82,3.82,0,0,1,.85-2.59,3,3,0,0,1,2.39-1,2.8,2.8,0,0,1,2.3,1,3.91,3.91,0,0,1,.79,2.56A3.7,3.7,0,0,1,306.18,53.48Zm-1.32-1.07a2.31,2.31,0,0,0-.47-1.42,1.54,1.54,0,0,0-1.27-.55,1.62,1.62,0,0,0-1.31.56,2.36,2.36,0,0,0-.52,1.41Z"/><rect class="cls-13" x="227.17" y="143" width="25" height="25"/><rect class="cls-9" x="261.78" y="143" width="25" height="25"/><rect class="cls-2" x="296.39" y="143" width="25" height="25"/><rect class="cls-8" x="331" y="143" width="25" height="25"/><rect class="cls-3" x="85.92" y="84.82" width="155.79" height="172.83"/><rect class="cls-14" x="85.92" y="251.8" width="155.79" height="8.7"/><rect class="cls-14" x="85.92" y="84.82" width="155.79" height="13.11"/><rect class="cls-6" x="121.3" y="229.95" width="10.42" height="2.15"/><rect class="cls-15" x="169.47" y="229.95" width="10.42" height="2.15"/><rect class="cls-6" x="121.3" y="223.37" width="43.46" height="2.15"/><rect class="cls-16" x="110.88" y="243.12" width="5.52" height="2.15"/><rect class="cls-16" x="110.88" y="111.45" width="6.47" height="2.15"/><rect class="cls-15" x="110.88" y="124.61" width="7.41" height="2.15"/><rect class="cls-6" x="121.3" y="124.61" width="20.67" height="2.15"/><rect class="cls-6" x="116.56" y="131.2" width="11.2" height="2.15"/><rect class="cls-6" x="161.5" y="131.2" width="11.2" height="2.15"/><rect class="cls-7" x="175.08" y="131.2" width="11.2" height="2.15"/><rect class="cls-6" x="131.72" y="131.2" width="25.78" height="2.15"/><rect class="cls-7" x="121.3" y="137.78" width="14.99" height="2.15"/><rect class="cls-6" x="140.56" y="137.78" width="32.15" height="2.15"/><rect class="cls-15" x="127.93" y="150.95" width="9.31" height="2.15"/><rect class="cls-16" x="127.93" y="157.53" width="9.31" height="2.15"/><rect class="cls-6" x="141.38" y="150.95" width="28.65" height="2.15"/><rect class="cls-6" x="141.38" y="157.53" width="39.85" height="2.15"/><rect class="cls-7" x="134.56" y="164.12" width="9.51" height="2.15"/><rect class="cls-6" x="141.38" y="170.7" width="63.71" height="2.15"/><rect class="cls-6" x="141.38" y="177.28" width="21.09" height="2.15"/><rect class="cls-7" x="166.22" y="177.28" width="9.41" height="2.15"/><rect class="cls-6" x="178.9" y="177.28" width="9.41" height="2.15"/><rect class="cls-16" x="117.51" y="183.87" width="6.47" height="2.15"/><rect class="cls-7" x="120.35" y="190.45" width="16.1" height="2.15"/><rect class="cls-7" x="208.44" y="190.45" width="11.37" height="2.15"/><rect class="cls-6" x="140.22" y="190.45" width="63.37" height="2.15"/><rect class="cls-6" x="129.82" y="197.04" width="53.78" height="2.15"/><rect class="cls-6" x="129.82" y="203.62" width="64.98" height="2.15"/><rect class="cls-7" x="126.04" y="210.2" width="7.58" height="2.15"/><rect class="cls-7" x="117.51" y="216.79" width="11.36" height="2.15"/><rect class="cls-6" x="135.74" y="229.95" width="29.01" height="2.15"/><circle class="cls-17" cx="94.46" cy="91.28" r="2.45"/><circle class="cls-15" cx="102.94" cy="91.28" r="2.45"/><circle class="cls-18" cx="111.42" cy="91.28" r="2.45"/><circle class="cls-19" cx="88.4" cy="219.45" r="38.05"/><path class="cls-20" d="M111.8,223.1a23.68,23.68,0,0,1-46.93-.92"/><polygon class="cls-6" points="69.27 226.68 64.95 222.89 61.17 227.22 60.94 223.77 64.72 219.45 69.05 223.23 69.27 226.68"/><path class="cls-20" d="M64.94,216.19a23.68,23.68,0,0,1,47,.5"/><polygon class="cls-6" points="107.53 212.23 111.86 216.01 115.64 211.68 115.87 215.13 112.08 219.45 107.76 215.67 107.53 212.23"/><path class="cls-6" d="M97.88,209.95a13.42,13.42,0,0,0-19,0,13.57,13.57,0,0,0,0,19,13.45,13.45,0,1,0,19-19Zm-1.61,5.93-9.63,9.76a.62.62,0,0,1-.74,0l-5.43-5.43c-.25-.25-.25-.62,0-.74l1.85-1.85c.25-.25.62-.25.74,0l3.21,3.21,7.53-7.53c.25-.25.62-.25.74,0l1.85,1.85a.45.45,0,0,1,.12.37C96.4,215.63,96.4,215.75,96.28,215.87Z"/><path class="cls-3" d="M559,163.3v97.2H427V160.64H556.34A2.66,2.66,0,0,1,559,163.3Z"/><path class="cls-14" d="M559,163.3v14.09H427V163.3a2.66,2.66,0,0,1,2.66-2.66H556.34A2.66,2.66,0,0,1,559,163.3Z"/><path class="cls-6" d="M437.64,171h0a2,2,0,1,1,0-4h0a2,2,0,0,1,0,4Z"/><path class="cls-6" d="M443.65,171h0a2,2,0,1,1,0-4h0a2,2,0,1,1,0,4Z"/><path class="cls-6" d="M449.66,171h0a2,2,0,0,1,0-4h0a2,2,0,1,1,0,4Z"/><path class="cls-6" d="M548.39,171h-3.71a2,2,0,0,1,0-4h3.71a2,2,0,1,1,0,4Z"/><path class="cls-6" d="M517.06,210.26h26.18a6.76,6.76,0,1,1,0,13.51H517.06a6.76,6.76,0,1,1,0-13.51Z"/><path class="cls-9" d="M523.82,217a6.75,6.75,0,1,1-6.75-6.76,6.76,6.76,0,0,1,6.75,6.76Z"/><path class="cls-6" d="M543.24,200.67H517.06a6.75,6.75,0,1,1,0-13.51h26.18a6.75,6.75,0,1,1,0,13.51Z"/><path class="cls-19" d="M550,193.91a6.76,6.76,0,1,1-6.76-6.76,6.76,6.76,0,0,1,6.76,6.76Z"/><path class="cls-6" d="M543.24,246.88H517.06a6.75,6.75,0,1,1,0-13.51h26.18a6.75,6.75,0,1,1,0,13.51Z"/><path class="cls-19" d="M550,240.12a6.76,6.76,0,1,1-6.76-6.75,6.76,6.76,0,0,1,6.76,6.75Z"/><path class="cls-4" d="M474.35,240.15H438.81a2,2,0,1,1,0-4h35.54a2,2,0,1,1,0,4Z"/><path class="cls-4" d="M447.94,246.21h-9.13a2,2,0,1,1,0-4h9.13a2,2,0,1,1,0,4Z"/><path class="cls-4" d="M497.19,246.21H453.6a2,2,0,1,1,0-4h43.59a2,2,0,1,1,0,4Z"/><path class="cls-4" d="M445.87,216.69h-7.06a2,2,0,1,1,0-4h7.06a2,2,0,1,1,0,4Z"/><path class="cls-4" d="M497.19,216.69H451.58a2,2,0,1,1,0-4h45.61a2,2,0,1,1,0,4Z"/><path class="cls-4" d="M497.19,222.75H438.81a2,2,0,1,1,0-4h58.38a2,2,0,0,1,0,4Z"/><path class="cls-4" d="M474.35,193.22H438.81a2,2,0,1,1,0-4h35.54a2,2,0,1,1,0,4Z"/><path class="cls-4" d="M471.52,199.29H438.81a2,2,0,1,1,0-4h32.71a2,2,0,1,1,0,4Z"/><path class="cls-4" d="M497.19,199.29h-20a2,2,0,1,1,0-4h20a2,2,0,0,1,0,4Z"/><path class="cls-3" d="M570,132V122H540v50h40V132Zm0,0"/><path class="cls-3" d="M510,82V72H480v50h40V82Zm0,0"/><path class="cls-21" d="M555,124.76v-5.52a2.24,2.24,0,0,0-2.24-2.24h0a2.22,2.22,0,0,1-2.12-1.54,21.54,21.54,0,0,0-1.54-3.65,2.23,2.23,0,0,1,.39-2.63l.6-.6a2.24,2.24,0,0,0,0-3.17l-3.5-3.5a2.24,2.24,0,0,0-3.17,0l-.6.6a2.23,2.23,0,0,1-2.63.39,21.54,21.54,0,0,0-3.65-1.54A2.22,2.22,0,0,1,535,99.24h0A2.24,2.24,0,0,0,532.76,97h-5.52A2.24,2.24,0,0,0,525,99.24h0a2.22,2.22,0,0,1-1.55,2.12,21.49,21.49,0,0,0-3.65,1.54,2.22,2.22,0,0,1-2.62-.39l-.59-.59a2.24,2.24,0,0,0-3.17,0l-3.5,3.5a2.24,2.24,0,0,0,0,3.17l.59.59a2.22,2.22,0,0,1,.39,2.62,21.49,21.49,0,0,0-1.54,3.65,2.22,2.22,0,0,1-2.12,1.55h0a2.24,2.24,0,0,0-2.24,2.24v5.52a2.24,2.24,0,0,0,2.24,2.24h0a2.22,2.22,0,0,1,2.12,1.54,21.54,21.54,0,0,0,1.54,3.65,2.23,2.23,0,0,1-.39,2.63l-.6.6a2.24,2.24,0,0,0,0,3.17l3.5,3.5a2.24,2.24,0,0,0,3.17,0l.6-.6a2.23,2.23,0,0,1,2.63-.39,21.54,21.54,0,0,0,3.65,1.54,2.22,2.22,0,0,1,1.54,2.12h0a2.24,2.24,0,0,0,2.24,2.24h5.52a2.24,2.24,0,0,0,2.24-2.24h0a2.22,2.22,0,0,1,1.55-2.12,21.49,21.49,0,0,0,3.65-1.54,2.22,2.22,0,0,1,2.62.39l.59.59a2.24,2.24,0,0,0,3.17,0l3.5-3.5a2.24,2.24,0,0,0,0-3.17l-.59-.59a2.22,2.22,0,0,1-.39-2.62,21.49,21.49,0,0,0,1.54-3.65,2.22,2.22,0,0,1,2.12-1.55h0A2.24,2.24,0,0,0,555,124.76Zm0,2.24"/><path class="cls-2" d="M545,122a15,15,0,1,1-15-15,15,15,0,0,1,15,15Zm0,0"/><path class="cls-6" d="M538.33,122a8.33,8.33,0,1,1-8.33-8.33,8.33,8.33,0,0,1,8.33,8.33Zm0,0"/><path class="cls-2" d="M580,132l-10-10v10Zm0,0"/><path class="cls-2" d="M520,82,510,72V82Zm0,0"/><rect class="cls-4" x="545" y="163.67" width="30" height="3.33"/><rect class="cls-4" x="545" y="157" width="30" height="3.33"/><rect class="cls-4" x="545" y="150.33" width="30" height="3.33"/><rect class="cls-4" x="558.33" y="143.67" width="16.67" height="3.33"/><rect class="cls-4" x="558.33" y="137" width="16.67" height="3.33"/><rect class="cls-4" x="485" y="103.67" width="20" height="3.33"/><rect class="cls-4" x="485" y="97" width="20" height="3.33"/><rect class="cls-4" x="485" y="90.33" width="20" height="3.33"/><rect class="cls-4" x="485" y="83.67" width="20" height="3.33"/><rect class="cls-4" x="485" y="77" width="20" height="3.33"/><path class="cls-21" d="M636.5,233.89a1.26,1.26,0,0,0-1.3-1.26l-62.07.55h-.26a1.25,1.25,0,0,1-1.15-.7A18,18,0,0,0,541.87,229a1.56,1.56,0,0,0,1.19,2.56h11.62a1.24,1.24,0,0,1,1.11.68l4,7.78a1.24,1.24,0,0,1,0,1.15l-4,7.78a1.24,1.24,0,0,1-1.11.68H543.06a1.58,1.58,0,0,0-1.41.9,1.53,1.53,0,0,0,.23,1.66,18,18,0,0,0,29.84-3.45,1.25,1.25,0,0,1,1.15-.7h.26l62,.43a1.25,1.25,0,0,0,1.28-1.24Z"/><circle class="cls-9" cx="620" cy="167" r="23"/><circle class="cls-19" cx="563" cy="85" r="16"/><path class="cls-6" d="M635.1,158.67a1.63,1.63,0,0,0-1.55-1.69h0l-27.13,0a1.48,1.48,0,0,0-1.1.5,1.76,1.76,0,0,0-.45,1.19l0,16.61a1.76,1.76,0,0,0,.46,1.19,1.48,1.48,0,0,0,1.09.49h0l27.13,0a1.63,1.63,0,0,0,1.55-1.69ZM625,169.35l7,5.94-24.1,0,7.07-6a.9.9,0,0,0,.14-1.18.73.73,0,0,0-1.09-.15l-7.62,6.44,0-15,13.14,9.89a.72.72,0,0,0,.88,0l13.11-9.93,0,15L626,168a.73.73,0,0,0-1.09.15A.9.9,0,0,0,625,169.35Zm-16.89-10.64,23.73,0-11.85,9Z"/><g id="_Group_" data-name="&lt;Group&gt;"><path id="_Path_4" data-name="&lt;Path&gt;" class="cls-6" d="M557.07,76.79l-2.29,2.29a2.59,2.59,0,0,0,0,3.7l2.51,2.59a2.5,2.5,0,0,0,3.62,0l-1.4-1.48a1.32,1.32,0,0,1-1.33-.37l-1.63-1.63a1.29,1.29,0,0,1,0-1.85l1.4-1.4a1.29,1.29,0,0,1,1.85,0l1.63,1.63a1.32,1.32,0,0,1,.37,1.33l1.4,1.4a2.59,2.59,0,0,0,0-3.7l-2.51-2.59A2.57,2.57,0,0,0,557.07,76.79Z"/><path id="_Path_5" data-name="&lt;Path&gt;" class="cls-6" d="M566.24,86.18a1.32,1.32,0,0,1,1.33.44L569,88.17a1.38,1.38,0,0,1,0,1.92l-1.4,1.4a1.29,1.29,0,0,1-1.85,0l-1.48-1.55a1.41,1.41,0,0,1-.37-1.4l-1.48-1.48a2.68,2.68,0,0,0,0,3.77l2.44,2.44a2.59,2.59,0,0,0,3.7,0L571,90.91a2.68,2.68,0,0,0,0-3.77l-2.44-2.44a2.59,2.59,0,0,0-3.7,0Z"/><path id="_Path_6" data-name="&lt;Path&gt;" class="cls-6" d="M565.57,87.8a.85.85,0,0,0,0-1.26l-4.21-4.21a.89.89,0,0,0-1.26,1.26l4.21,4.21A.85.85,0,0,0,565.57,87.8Z"/></g></g></svg>